<?xml version="1.0"?>
<svg version="1.1" xmlns="http://www.w3.org/2000/svg" width="160" height="50" style=""><path fill="#f0c775" d="M21.312,25.792c0,1.86-1.404,2.772-3.168,2.772c-0.096,0-0.636-0.024-0.72-0.036l0,2.664c0,0.18-0.072,0.288-0.3,0.288l-0.96,0c-0.192,0-0.288-0.084-0.288-0.324l0-7.656c0-0.24,0.072-0.324,0.3-0.324l1.74,0c1.272,0,2.208,0.24,2.796,0.912c0.384,0.444,0.6,1.056,0.6,1.704z M19.752,25.852c0-1.092-0.672-1.476-1.704-1.476l-0.624,0l0,2.976c0.096,0,0.636,0.012,0.708,0.012c1.02,0,1.62-0.48,1.62-1.512z M29.202,31.336c0,0.096-0.072,0.144-0.18,0.144l-1.092,0c-0.216,0-0.36-0.06-0.468-0.24l-1.728-2.82l-0.924,0l0,2.76c0,0.18-0.072,0.3-0.276,0.3l-0.984,0c-0.204,0-0.288-0.096-0.288-0.3l0-7.656c0-0.264,0.06-0.348,0.324-0.348l1.776,0c1.044,0,2.148,0.156,2.784,0.888c0.384,0.444,0.576,1.032,0.576,1.68c0,1.104-0.588,1.968-1.548,2.388l1.968,3.036c0.036,0.06,0.06,0.12,0.06,0.168z M27.15,25.768c0-1.044-0.696-1.416-1.74-1.416l-0.6,0l0,2.904l0.744,0c0.96,0,1.596-0.516,1.596-1.488z M37.824,31.288c0,0.12-0.06,0.192-0.216,0.192l-1.068,0c-0.252,0-0.336-0.096-0.408-0.288l-0.624-1.764l-3.036,0l-0.624,1.8c-0.048,0.156-0.132,0.252-0.324,0.252l-1.068,0c-0.12,0-0.168-0.06-0.168-0.156c0-0.036,0-0.084,0.024-0.132l2.928-7.776c0.06-0.144,0.144-0.24,0.324-0.24l0.96,0c0.18,0,0.288,0.084,0.336,0.216l2.94,7.74c0.024,0.06,0.024,0.108,0.024,0.156z M35.1,28.264l-0.852-2.532c-0.108-0.336-0.18-0.588-0.24-0.78l-0.024,0c-0.06,0.204-0.132,0.456-0.252,0.792l-0.852,2.52l2.22,0z M46.254,23.356c0,0.036-0.012,0.072-0.024,0.12l-2.82,7.74c-0.06,0.168-0.192,0.264-0.372,0.264l-0.804,0c-0.228,0-0.336-0.096-0.408-0.3l-2.952-7.668c-0.024-0.048-0.036-0.096-0.036-0.144c0-0.12,0.096-0.192,0.24-0.192l1.056,0c0.252,0,0.372,0.084,0.432,0.252l2.124,5.928l0.036,0l2.004-5.892c0.072-0.216,0.18-0.288,0.456-0.288l0.84,0c0.156,0,0.228,0.072,0.228,0.18z M51.276,23.932c0,0.192-0.084,0.252-0.252,0.252l-0.684,0l0,6.288l0.648,0c0.168,0,0.252,0.108,0.252,0.252l0,0.516c0,0.144-0.06,0.24-0.216,0.24l-2.856,0c-0.156,0-0.24-0.096-0.24-0.228l0-0.54c0-0.168,0.072-0.24,0.24-0.24l0.636,0l0-6.288l-0.696,0c-0.168,0-0.24-0.084-0.24-0.24l0-0.528c0-0.132,0.072-0.24,0.216-0.24l2.94,0c0.168,0,0.252,0.108,0.252,0.228l0,0.528z M60.57,31.156c0,0.264-0.108,0.324-0.288,0.324l-0.804,0c-0.18,0-0.336-0.084-0.456-0.252l-3.912-5.352l-0.024,0l0,5.292c0,0.228-0.108,0.312-0.312,0.312l-0.864,0c-0.228,0-0.324-0.06-0.324-0.3l0-7.68c0-0.252,0.108-0.324,0.324-0.324l0.78,0c0.192,0,0.288,0.06,0.408,0.228l3.948,5.424l0.024,0l0-5.34c0-0.228,0.108-0.312,0.312-0.312l0.9,0c0.252,0,0.288,0.132,0.288,0.324l0,7.656z"/><path fill="#f0c775" d="M73.396,30.808c0,0.088-0.066,0.132-0.165,0.132l-1.001,0c-0.198,0-0.33-0.055-0.429-0.22l-1.584-2.585l-0.847,0l0,2.53c0,0.165-0.066,0.275-0.253,0.275l-0.902,0c-0.187,0-0.264-0.088-0.264-0.275l0-7.018c0-0.242,0.055-0.319,0.297-0.319l1.628,0c0.957,0,1.969,0.143,2.552,0.814c0.352,0.407,0.528,0.946,0.528,1.54c0,1.012-0.539,1.804-1.419,2.189l1.804,2.783c0.033,0.055,0.055,0.11,0.055,0.154z M71.515,25.704c0-0.957-0.638-1.298-1.595-1.298l-0.55,0l0,2.662l0.682,0c0.88,0,1.463-0.473,1.463-1.364z M79.7595,30.676c0,0.176-0.077,0.264-0.264,0.264l-4.081,0c-0.22,0-0.297-0.055-0.297-0.297l0-7.04c0-0.176,0.077-0.275,0.253-0.275l4.147,0c0.176,0,0.231,0.066,0.231,0.187l0,0.066l-0.077,0.66c-0.022,0.198-0.143,0.231-0.374,0.231l-2.761,0l0,1.991l2.541,0c0.209,0,0.275,0.088,0.275,0.242l0,0.627c0,0.187-0.077,0.264-0.264,0.264l-2.552,0l0,2.2l2.948,0c0.187,0,0.275,0.077,0.275,0.253l0,0.627z M86.387,28.718c0,1.529-1.243,2.354-2.673,2.354c-0.66,0-1.441-0.121-2.101-0.352c-0.143-0.055-0.187-0.121-0.187-0.209c0-0.044,0-0.088,0.022-0.143l0.231-0.715c0.033-0.11,0.088-0.176,0.198-0.176c0.044,0,0.099,0.011,0.165,0.033c0.517,0.187,1.089,0.33,1.639,0.33c0.594,0,1.265-0.286,1.265-0.979c0-0.506-0.374-0.781-0.803-0.99l-1.43-0.715c-0.781-0.385-1.298-1.034-1.298-1.892c0-1.342,1.32-2.079,2.541-2.079c0.726,0,1.331,0.11,1.969,0.385c0.143,0.066,0.22,0.132,0.22,0.22c0,0.044-0.011,0.088-0.033,0.143l-0.264,0.671c-0.044,0.121-0.11,0.165-0.187,0.165c-0.055,0-0.11-0.022-0.176-0.044c-0.451-0.187-1.012-0.341-1.452-0.341c-0.517,0-1.111,0.22-1.111,0.836c0,0.451,0.418,0.715,0.781,0.891l1.221,0.594c0.869,0.418,1.463,1.001,1.463,2.013z M93.7735,23.603l-0.077,0.638c-0.022,0.187-0.143,0.231-0.341,0.231l-1.991,0l0,6.215c0,0.209-0.044,0.253-0.231,0.253l-0.968,0c-0.198,0-0.231-0.044-0.231-0.242l0-6.226l-2.057,0c-0.187,0-0.253-0.077-0.253-0.264l0-0.649c0-0.165,0.077-0.231,0.242-0.231l5.566,0c0.286,0,0.363,0.088,0.341,0.275z M101.446,30.764c0,0.11-0.055,0.176-0.198,0.176l-0.979,0c-0.231,0-0.308-0.088-0.374-0.264l-0.572-1.617l-2.783,0l-0.572,1.65c-0.044,0.143-0.121,0.231-0.297,0.231l-0.979,0c-0.11,0-0.154-0.055-0.154-0.143c0-0.033,0-0.077,0.022-0.121l2.684-7.128c0.055-0.132,0.132-0.22,0.297-0.22l0.88,0c0.165,0,0.264,0.077,0.308,0.198l2.695,7.095c0.022,0.055,0.022,0.099,0.022,0.143z M98.949,27.992l-0.781-2.321c-0.099-0.308-0.165-0.539-0.22-0.715l-0.022,0c-0.055,0.187-0.121,0.418-0.231,0.726l-0.781,2.31l2.035,0z M109.3385,27.563c0,2.266-1.067,3.509-3.212,3.509c-2.321,0-3.168-1.276-3.168-3.531l0-3.949c0-0.187,0.11-0.264,0.286-0.264l0.869,0c0.187,0,0.264,0.077,0.264,0.264l0,3.828c0,1.617,0.418,2.453,1.804,2.453c1.331,0,1.749-0.88,1.749-2.453l0-3.828c0-0.187,0.099-0.264,0.275-0.264l0.869,0c0.187,0,0.264,0.077,0.264,0.264l0,3.971z M117.011,30.808c0,0.088-0.066,0.132-0.165,0.132l-1.001,0c-0.198,0-0.33-0.055-0.429-0.22l-1.584-2.585l-0.847,0l0,2.53c0,0.165-0.066,0.275-0.253,0.275l-0.902,0c-0.187,0-0.264-0.088-0.264-0.275l0-7.018c0-0.242,0.055-0.319,0.297-0.319l1.628,0c0.957,0,1.969,0.143,2.552,0.814c0.352,0.407,0.528,0.946,0.528,1.54c0,1.012-0.539,1.804-1.419,2.189l1.804,2.783c0.033,0.055,0.055,0.11,0.055,0.154z M115.13,25.704c0-0.957-0.638-1.298-1.595-1.298l-0.55,0l0,2.662l0.682,0c0.88,0,1.463-0.473,1.463-1.364z M124.9145,30.764c0,0.11-0.055,0.176-0.198,0.176l-0.979,0c-0.231,0-0.308-0.088-0.374-0.264l-0.572-1.617l-2.783,0l-0.572,1.65c-0.044,0.143-0.121,0.231-0.297,0.231l-0.979,0c-0.11,0-0.154-0.055-0.154-0.143c0-0.033,0-0.077,0.022-0.121l2.684-7.128c0.055-0.132,0.132-0.22,0.297-0.22l0.88,0c0.165,0,0.264,0.077,0.308,0.198l2.695,7.095c0.022,0.055,0.022,0.099,0.022,0.143z M122.4175,27.992l-0.781-2.321c-0.099-0.308-0.165-0.539-0.22-0.715l-0.022,0c-0.055,0.187-0.121,0.418-0.231,0.726l-0.781,2.31l2.035,0z M132.862,30.643c0,0.242-0.099,0.297-0.264,0.297l-0.737,0c-0.165,0-0.308-0.077-0.418-0.231l-3.586-4.906l-0.022,0l0,4.851c0,0.209-0.099,0.286-0.286,0.286l-0.792,0c-0.209,0-0.297-0.055-0.297-0.275l0-7.04c0-0.231,0.099-0.297,0.297-0.297l0.715,0c0.176,0,0.264,0.055,0.374,0.209l3.619,4.972l0.022,0l0-4.895c0-0.209,0.099-0.286,0.286-0.286l0.825,0c0.231,0,0.264,0.121,0.264,0.297l0,7.018z M140.6005,23.603l-0.077,0.638c-0.022,0.187-0.143,0.231-0.341,0.231l-1.991,0l0,6.215c0,0.209-0.044,0.253-0.231,0.253l-0.968,0c-0.198,0-0.231-0.044-0.231-0.242l0-6.226l-2.057,0c-0.187,0-0.253-0.077-0.253-0.264l0-0.649c0-0.165,0.077-0.231,0.242-0.231l5.566,0c0.286,0,0.363,0.088,0.341,0.275z M146.788,28.718c0,1.529-1.243,2.354-2.673,2.354c-0.66,0-1.441-0.121-2.101-0.352c-0.143-0.055-0.187-0.121-0.187-0.209c0-0.044,0-0.088,0.022-0.143l0.231-0.715c0.033-0.11,0.088-0.176,0.198-0.176c0.044,0,0.099,0.011,0.165,0.033c0.517,0.187,1.089,0.33,1.639,0.33c0.594,0,1.265-0.286,1.265-0.979c0-0.506-0.374-0.781-0.803-0.99l-1.43-0.715c-0.781-0.385-1.298-1.034-1.298-1.892c0-1.342,1.32-2.079,2.541-2.079c0.726,0,1.331,0.11,1.969,0.385c0.143,0.066,0.22,0.132,0.22,0.22c0,0.044-0.011,0.088-0.033,0.143l-0.264,0.671c-0.044,0.121-0.11,0.165-0.187,0.165c-0.055,0-0.11-0.022-0.176-0.044c-0.451-0.187-1.012-0.341-1.452-0.341c-0.517,0-1.111,0.22-1.111,0.836c0,0.451,0.418,0.715,0.781,0.891l1.221,0.594c0.869,0.418,1.463,1.001,1.463,2.013z"/></svg>
