<?xml version="1.0"?>
<svg version="1.1" xmlns="http://www.w3.org/2000/svg" width="320" height="100" style=""><path fill="#f0c775" d="M24.994,51.254c0,2.945-2.223,4.389-5.016,4.389c-0.152,0-1.007-0.038-1.14-0.057l0,4.218c0,0.285-0.114,0.456-0.475,0.456l-1.52,0c-0.304,0-0.456-0.133-0.456-0.513l0-12.122c0-0.38,0.114-0.513,0.475-0.513l2.755,0c2.014,0,3.496,0.38,4.427,1.444c0.608,0.703,0.95,1.672,0.95,2.698z M22.524,51.349c0-1.729-1.064-2.337-2.698-2.337l-0.988,0l0,4.712c0.152,0,1.007,0.019,1.121,0.019c1.615,0,2.565-0.76,2.565-2.394z M37.4865,60.032c0,0.152-0.114,0.228-0.285,0.228l-1.729,0c-0.342,0-0.57-0.095-0.741-0.38l-2.736-4.465l-1.463,0l0,4.37c0,0.285-0.114,0.475-0.437,0.475l-1.558,0c-0.323,0-0.456-0.152-0.456-0.475l0-12.122c0-0.418,0.095-0.551,0.513-0.551l2.812,0c1.653,0,3.401,0.247,4.408,1.406c0.608,0.703,0.912,1.634,0.912,2.66c0,1.748-0.931,3.116-2.451,3.781l3.116,4.807c0.057,0.095,0.095,0.19,0.095,0.266z M34.2375,51.216c0-1.653-1.102-2.242-2.755-2.242l-0.95,0l0,4.598l1.178,0c1.52,0,2.527-0.817,2.527-2.356z M51.138,59.956c0,0.19-0.095,0.304-0.342,0.304l-1.691,0c-0.399,0-0.532-0.152-0.646-0.456l-0.988-2.793l-4.807,0l-0.988,2.85c-0.076,0.247-0.209,0.399-0.513,0.399l-1.691,0c-0.19,0-0.266-0.095-0.266-0.247c0-0.057,0-0.133,0.038-0.209l4.636-12.312c0.095-0.228,0.228-0.38,0.513-0.38l1.52,0c0.285,0,0.456,0.133,0.532,0.342l4.655,12.255c0.038,0.095,0.038,0.171,0.038,0.247z M46.825,55.168l-1.349-4.009c-0.171-0.532-0.285-0.931-0.38-1.235l-0.038,0c-0.095,0.323-0.209,0.722-0.399,1.254l-1.349,3.99l3.515,0z M64.4855,47.397c0,0.057-0.019,0.114-0.038,0.19l-4.465,12.255c-0.095,0.266-0.304,0.418-0.589,0.418l-1.273,0c-0.361,0-0.532-0.152-0.646-0.475l-4.674-12.141c-0.038-0.076-0.057-0.152-0.057-0.228c0-0.19,0.152-0.304,0.38-0.304l1.672,0c0.399,0,0.589,0.133,0.684,0.399l3.363,9.386l0.057,0l3.173-9.329c0.114-0.342,0.285-0.456,0.722-0.456l1.33,0c0.247,0,0.361,0.114,0.361,0.285z M72.437,48.309c0,0.304-0.133,0.399-0.399,0.399l-1.083,0l0,9.956l1.026,0c0.266,0,0.399,0.171,0.399,0.399l0,0.817c0,0.228-0.095,0.38-0.342,0.38l-4.522,0c-0.247,0-0.38-0.152-0.38-0.361l0-0.855c0-0.266,0.114-0.38,0.38-0.38l1.007,0l0-9.956l-1.102,0c-0.266,0-0.38-0.133-0.38-0.38l0-0.836c0-0.209,0.114-0.38,0.342-0.38l4.655,0c0.266,0,0.399,0.171,0.399,0.361l0,0.836z M87.1525,59.747c0,0.418-0.171,0.513-0.456,0.513l-1.273,0c-0.285,0-0.532-0.133-0.722-0.399l-6.194-8.474l-0.038,0l0,8.379c0,0.361-0.171,0.494-0.494,0.494l-1.368,0c-0.361,0-0.513-0.095-0.513-0.475l0-12.16c0-0.399,0.171-0.513,0.513-0.513l1.235,0c0.304,0,0.456,0.095,0.646,0.361l6.251,8.588l0.038,0l0-8.455c0-0.361,0.171-0.494,0.494-0.494l1.425,0c0.399,0,0.456,0.209,0.456,0.513l0,12.122z"/><path fill="#f0c775" d="M104.307,58.976c0,0.136-0.102,0.204-0.255,0.204l-1.547,0c-0.306,0-0.51-0.085-0.663-0.34l-2.448-3.995l-1.309,0l0,3.91c0,0.255-0.102,0.425-0.391,0.425l-1.394,0c-0.289,0-0.408-0.136-0.408-0.425l0-10.846c0-0.374,0.085-0.493,0.459-0.493l2.516,0c1.479,0,3.043,0.221,3.944,1.258c0.544,0.629,0.816,1.462,0.816,2.38c0,1.564-0.833,2.788-2.193,3.383l2.788,4.301c0.051,0.085,0.085,0.17,0.085,0.238z M101.4,51.088c0-1.479-0.986-2.006-2.465-2.006l-0.85,0l0,4.114l1.054,0c1.36,0,2.261-0.731,2.261-2.108z M114.1415,58.772c0,0.272-0.119,0.408-0.408,0.408l-6.307,0c-0.34,0-0.459-0.085-0.459-0.459l0-10.88c0-0.272,0.119-0.425,0.391-0.425l6.409,0c0.272,0,0.357,0.102,0.357,0.289l0,0.102l-0.119,1.02c-0.034,0.306-0.221,0.357-0.578,0.357l-4.267,0l0,3.077l3.927,0c0.323,0,0.425,0.136,0.425,0.374l0,0.969c0,0.289-0.119,0.408-0.408,0.408l-3.944,0l0,3.4l4.556,0c0.289,0,0.425,0.119,0.425,0.391l0,0.969z M124.384,55.746c0,2.363-1.921,3.638-4.131,3.638c-1.02,0-2.227-0.187-3.247-0.544c-0.221-0.085-0.289-0.187-0.289-0.323c0-0.068,0-0.136,0.034-0.221l0.357-1.105c0.051-0.17,0.136-0.272,0.306-0.272c0.068,0,0.153,0.017,0.255,0.051c0.799,0.289,1.683,0.51,2.533,0.51c0.918,0,1.955-0.442,1.955-1.513c0-0.782-0.578-1.207-1.241-1.53l-2.21-1.105c-1.207-0.595-2.006-1.598-2.006-2.924c0-2.074,2.04-3.213,3.927-3.213c1.122,0,2.057,0.17,3.043,0.595c0.221,0.102,0.34,0.204,0.34,0.34c0,0.068-0.017,0.136-0.051,0.221l-0.408,1.037c-0.068,0.187-0.17,0.255-0.289,0.255c-0.085,0-0.17-0.034-0.272-0.068c-0.697-0.289-1.564-0.527-2.244-0.527c-0.799,0-1.717,0.34-1.717,1.292c0,0.697,0.646,1.105,1.207,1.377l1.887,0.918c1.343,0.646,2.261,1.547,2.261,3.111z M135.7995,47.841l-0.119,0.986c-0.034,0.289-0.221,0.357-0.527,0.357l-3.077,0l0,9.605c0,0.323-0.068,0.391-0.357,0.391l-1.496,0c-0.306,0-0.357-0.068-0.357-0.374l0-9.622l-3.179,0c-0.289,0-0.391-0.119-0.391-0.408l0-1.003c0-0.255,0.119-0.357,0.374-0.357l8.602,0c0.442,0,0.561,0.136,0.527,0.425z M147.657,58.908c0,0.17-0.085,0.272-0.306,0.272l-1.513,0c-0.357,0-0.476-0.136-0.578-0.408l-0.884-2.499l-4.301,0l-0.884,2.55c-0.068,0.221-0.187,0.357-0.459,0.357l-1.513,0c-0.17,0-0.238-0.085-0.238-0.221c0-0.051,0-0.119,0.034-0.187l4.148-11.016c0.085-0.204,0.204-0.34,0.459-0.34l1.36,0c0.255,0,0.408,0.119,0.476,0.306l4.165,10.965c0.034,0.085,0.034,0.153,0.034,0.221z M143.798,54.624l-1.207-3.587c-0.153-0.476-0.255-0.833-0.34-1.105l-0.034,0c-0.085,0.289-0.187,0.646-0.357,1.122l-1.207,3.57l3.145,0z M159.8545,53.961c0,3.502-1.649,5.423-4.964,5.423c-3.587,0-4.896-1.972-4.896-5.457l0-6.103c0-0.289,0.17-0.408,0.442-0.408l1.343,0c0.289,0,0.408,0.119,0.408,0.408l0,5.916c0,2.499,0.646,3.791,2.788,3.791c2.057,0,2.703-1.36,2.703-3.791l0-5.916c0-0.289,0.153-0.408,0.425-0.408l1.343,0c0.289,0,0.408,0.119,0.408,0.408l0,6.137z M171.712,58.976c0,0.136-0.102,0.204-0.255,0.204l-1.547,0c-0.306,0-0.51-0.085-0.663-0.34l-2.448-3.995l-1.309,0l0,3.91c0,0.255-0.102,0.425-0.391,0.425l-1.394,0c-0.289,0-0.408-0.136-0.408-0.425l0-10.846c0-0.374,0.085-0.493,0.459-0.493l2.516,0c1.479,0,3.043,0.221,3.944,1.258c0.544,0.629,0.816,1.462,0.816,2.38c0,1.564-0.833,2.788-2.193,3.383l2.788,4.301c0.051,0.085,0.085,0.17,0.085,0.238z M168.805,51.088c0-1.479-0.986-2.006-2.465-2.006l-0.85,0l0,4.114l1.054,0c1.36,0,2.261-0.731,2.261-2.108z M183.9265,58.908c0,0.17-0.085,0.272-0.306,0.272l-1.513,0c-0.357,0-0.476-0.136-0.578-0.408l-0.884-2.499l-4.301,0l-0.884,2.55c-0.068,0.221-0.187,0.357-0.459,0.357l-1.513,0c-0.17,0-0.238-0.085-0.238-0.221c0-0.051,0-0.119,0.034-0.187l4.148-11.016c0.085-0.204,0.204-0.34,0.459-0.34l1.36,0c0.255,0,0.408,0.119,0.476,0.306l4.165,10.965c0.034,0.085,0.034,0.153,0.034,0.221z M180.0675,54.624l-1.207-3.587c-0.153-0.476-0.255-0.833-0.34-1.105l-0.034,0c-0.085,0.289-0.187,0.646-0.357,1.122l-1.207,3.57l3.145,0z M196.209,58.721c0,0.374-0.153,0.459-0.408,0.459l-1.139,0c-0.255,0-0.476-0.119-0.646-0.357l-5.542-7.582l-0.034,0l0,7.497c0,0.323-0.153,0.442-0.442,0.442l-1.224,0c-0.323,0-0.459-0.085-0.459-0.425l0-10.88c0-0.357,0.153-0.459,0.459-0.459l1.105,0c0.272,0,0.408,0.085,0.578,0.323l5.593,7.684l0.034,0l0-7.565c0-0.323,0.153-0.442,0.442-0.442l1.275,0c0.357,0,0.408,0.187,0.408,0.459l0,10.846z M208.1685,47.841l-0.119,0.986c-0.034,0.289-0.221,0.357-0.527,0.357l-3.077,0l0,9.605c0,0.323-0.068,0.391-0.357,0.391l-1.496,0c-0.306,0-0.357-0.068-0.357-0.374l0-9.622l-3.179,0c-0.289,0-0.391-0.119-0.391-0.408l0-1.003c0-0.255,0.119-0.357,0.374-0.357l8.602,0c0.442,0,0.561,0.136,0.527,0.425z M217.731,55.746c0,2.363-1.921,3.638-4.131,3.638c-1.02,0-2.227-0.187-3.247-0.544c-0.221-0.085-0.289-0.187-0.289-0.323c0-0.068,0-0.136,0.034-0.221l0.357-1.105c0.051-0.17,0.136-0.272,0.306-0.272c0.068,0,0.153,0.017,0.255,0.051c0.799,0.289,1.683,0.51,2.533,0.51c0.918,0,1.955-0.442,1.955-1.513c0-0.782-0.578-1.207-1.241-1.53l-2.21-1.105c-1.207-0.595-2.006-1.598-2.006-2.924c0-2.074,2.04-3.213,3.927-3.213c1.122,0,2.057,0.17,3.043,0.595c0.221,0.102,0.34,0.204,0.34,0.34c0,0.068-0.017,0.136-0.051,0.221l-0.408,1.037c-0.068,0.187-0.17,0.255-0.289,0.255c-0.085,0-0.17-0.034-0.272-0.068c-0.697-0.289-1.564-0.527-2.244-0.527c-0.799,0-1.717,0.34-1.717,1.292c0,0.697,0.646,1.105,1.207,1.377l1.887,0.918c1.343,0.646,2.261,1.547,2.261,3.111z"/></svg>
