<svg version="1.1" id="Layer_1" xmlns="http://www.w3.org/2000/svg" xmlns:xlink="http://www.w3.org/1999/xlink" x="0px" y="0px"
	 width="100%" viewBox="0 0 480 150" enable-background="new 0 0 480 150" xml:space="preserve">
<path fill="#181816" opacity="1.000000" stroke="none" 
	d="
M92.000000,1.000000 
	C98.687645,1.000000 105.375290,1.000000 112.605186,1.321757 
	C114.098190,2.428651 115.048943,3.213789 115.999847,3.999464 
	C116.000000,4.000000 116.001068,4.000440 116.077339,4.339278 
	C117.769249,7.451820 119.384888,10.225524 121.000534,13.332788 
	C121.000565,14.111094 121.000587,14.555840 120.820190,15.161833 
	C120.423790,15.749335 120.207825,16.175591 119.548538,16.687740 
	C116.969742,16.773634 114.834244,16.773634 112.425713,16.773634 
	C112.425713,45.069466 112.425713,72.919716 112.425713,101.147514 
	C114.098717,101.040985 115.457809,100.954437 117.195580,100.843781 
	C117.195580,74.390518 117.195580,48.347828 117.195580,22.179592 
	C120.734276,22.179592 123.866013,22.179592 126.998260,22.543119 
	C126.998344,23.876070 126.997925,24.845491 126.562798,25.880913 
	C124.557289,26.047407 122.986488,26.147905 121.453873,26.245960 
	C121.453873,31.005756 121.453873,35.354832 121.453873,40.185081 
	C126.852440,40.185081 131.925110,40.185081 137.076141,40.518299 
	C139.959564,43.639004 142.764618,46.426491 145.340485,49.535553 
	C139.294662,53.769440 132.819275,52.660702 126.205566,52.667732 
	C126.083794,49.880951 125.977158,47.440773 125.862091,44.807621 
	C124.267181,44.807621 122.890182,44.807621 121.344032,44.807621 
	C121.344032,49.074768 121.344032,52.999229 121.344032,56.877617 
	C128.867004,58.448467 139.474060,57.601929 147.075653,55.280754 
	C148.096466,56.590073 149.008728,57.514034 149.615479,58.693810 
	C140.061935,60.324429 130.813873,61.699234 120.712372,63.200909 
	C121.447983,64.192123 122.297813,66.356483 123.179634,66.369598 
	C133.241241,66.519287 143.444565,67.459763 152.988525,63.224129 
	C153.377243,64.391045 153.737991,65.213104 153.928146,66.364723 
	C148.884323,68.331589 144.011093,69.968895 138.967590,71.663406 
	C143.785599,80.591110 148.440460,89.574310 153.518784,98.311386 
	C154.483688,99.971458 157.125458,100.656876 158.993530,101.791992 
	C159.302795,101.338524 159.612061,100.885048 159.921341,100.431572 
	C155.392380,91.878555 150.863419,83.325531 146.395737,74.888206 
	C150.698975,73.257027 154.260986,71.906815 157.970856,70.878304 
	C159.078934,72.133034 160.039154,73.066063 161.059448,74.278549 
	C161.413406,75.038834 161.707306,75.519646 162.092316,76.288857 
	C162.788742,77.051132 163.394073,77.525017 163.999695,77.999451 
	C164.000000,78.000000 164.001221,78.000450 164.068573,78.344208 
	C165.423950,80.791573 166.711975,82.895180 168.250305,84.999214 
	C168.667480,84.999924 168.834351,85.000206 169.021271,85.347321 
	C170.027542,87.129028 171.013779,88.563911 172.231232,90.225098 
	C173.975388,91.967728 175.488312,93.484047 177.076508,95.339050 
	C179.098328,97.785103 181.044876,99.892471 182.956177,102.383362 
	C182.168152,104.706825 181.415329,106.646767 180.432892,109.178429 
	C184.076691,109.178429 187.037476,109.178429 190.024994,109.527092 
	C194.403519,114.926880 198.755325,119.978004 203.063416,125.400558 
	C200.950897,130.951752 198.882111,136.131516 196.813309,141.311264 
	C197.130127,141.699631 197.446930,142.087997 197.763733,142.476364 
	C199.257477,141.558655 200.661438,140.106049 202.264053,139.837112 
	C205.383713,139.313583 208.654327,139.096024 211.785797,139.443069 
	C213.906631,139.678101 215.896698,141.093170 218.284607,142.062408 
	C221.415955,145.096222 224.207977,148.048111 227.000000,151.000000 
	C204.979111,151.000000 182.958206,151.000000 160.445129,150.638992 
	C157.525162,145.137009 154.925125,140.166870 148.735596,138.466339 
	C150.995789,131.349289 143.515839,131.030869 141.125839,127.080345 
	C143.717010,126.323204 145.949417,125.670898 148.684921,124.871582 
	C143.660614,119.975983 142.141052,119.984726 137.041809,123.799469 
	C133.347275,118.658585 129.690048,113.895920 126.099579,108.660072 
	C126.166328,97.277222 126.166328,86.367561 126.166328,75.457901 
	C126.778992,75.107880 127.391655,74.757851 128.004318,74.407822 
	C129.556107,75.814995 131.609787,76.942589 132.575485,78.676231 
	C137.589859,87.678192 142.293533,96.852692 147.199615,105.916122 
	C147.859283,107.134773 149.024109,108.957314 150.002197,108.987831 
	C158.009476,109.237663 166.027969,109.128662 174.880798,109.128662 
	C168.880692,97.870216 163.506851,87.579651 157.833984,77.456650 
	C157.253845,76.421387 154.881439,76.390511 153.340698,75.893570 
	C153.117920,76.389565 152.895157,76.885567 152.672379,77.381569 
	C157.257874,86.123070 161.843353,94.864571 166.874329,104.455299 
	C162.744614,104.455299 159.607880,104.230843 156.517868,104.514786 
	C153.024139,104.835823 151.172302,103.480919 149.593216,100.347252 
	C145.105927,91.442299 140.147766,82.775810 135.549393,73.924843 
	C134.245667,71.415443 132.740082,70.060402 129.780457,70.418770 
	C127.011589,70.754059 124.204277,70.771782 120.963760,70.954666 
	C120.963760,82.275421 120.963760,93.206909 120.963760,104.096024 
	C116.426483,104.096024 112.371742,104.096024 107.876526,104.096024 
	C107.876526,74.834908 107.876526,45.941719 107.876526,16.269777 
	C105.795135,16.996656 104.358223,17.498466 102.589554,17.920261 
	C96.059052,13.919877 94.830688,6.971930 92.000000,1.000000 
M177.426193,126.470772 
	C178.437515,125.520615 179.448837,124.570450 180.460159,123.620293 
	C179.332642,122.996674 178.243896,121.940079 177.069931,121.834923 
	C174.163391,121.574570 171.217850,121.749443 167.556351,121.749443 
	C168.165237,123.728622 168.424149,125.822289 168.883026,125.867081 
	C173.223618,126.290703 171.835571,129.500381 171.961990,131.867355 
	C172.103378,134.514511 171.866196,137.186310 172.093552,139.821533 
	C172.155945,140.544846 173.291519,141.175583 174.778015,141.905869 
	C175.510696,140.729568 176.796005,139.588379 176.873398,138.370468 
	C177.114594,134.574265 176.898544,130.749039 177.426193,126.470772 
z"/>
<path fill="#131313" opacity="1.000000" stroke="none" 
	d="
M148.630066,138.861420 
	C154.925125,140.166870 157.525162,145.137009 159.976471,150.638992 
	C132.645767,151.000000 105.291542,151.000000 77.389679,150.653534 
	C75.893219,147.595291 74.944397,144.883514 74.229774,142.087265 
	C74.463982,142.002792 74.934013,141.838425 75.327026,141.830841 
	C76.147728,139.887115 76.575409,137.950989 77.322113,136.172653 
	C79.354057,138.934357 79.448441,143.887024 84.969109,141.300217 
	C84.016701,138.489075 83.100128,135.783722 82.481293,132.871033 
	C83.314903,130.199219 84.822266,127.432892 84.171120,125.337227 
	C83.044281,121.710526 79.514519,121.216194 75.730865,121.968246 
	C75.309334,121.990898 75.142494,122.023064 74.542343,121.976807 
	C73.405708,123.032562 72.168175,124.132805 72.093590,125.306923 
	C71.804321,129.860306 71.885056,134.437225 71.505325,138.920624 
	C67.650841,134.577438 63.854851,130.507065 60.655598,126.011993 
	C56.837162,120.646965 53.529766,114.918228 50.306358,109.023033 
	C50.611725,98.459160 50.611725,88.219284 50.611725,77.486687 
	C66.199379,77.886452 81.048088,77.895515 89.057007,62.046272 
	C90.303421,64.202286 91.200989,66.177765 92.483215,67.860069 
	C95.873703,72.308472 99.430786,76.629898 103.006653,81.463638 
	C103.091751,90.861847 103.091751,99.798279 103.091751,109.133263 
	C111.133667,109.133263 118.583244,109.133263 126.032822,109.133263 
	C129.690048,113.895920 133.347275,118.658585 136.990814,124.213554 
	C134.960098,131.345444 140.582581,133.158493 144.875641,136.101746 
	C141.566071,136.854996 139.401840,137.347565 136.885071,137.920380 
	C140.658600,143.295792 144.122955,143.345123 148.630066,138.861420 
M113.178619,130.248306 
	C112.107094,129.600159 111.035576,128.952026 109.964050,128.303864 
	C111.059921,127.877510 112.134521,127.379547 113.257904,127.045784 
	C114.296364,126.737251 115.387077,126.604607 116.471512,126.391220 
	C116.337891,124.686134 116.234779,123.370392 116.152802,122.324310 
	C112.430954,122.324310 109.020531,122.324310 105.483963,122.324310 
	C105.483963,128.959229 105.483963,135.200760 105.483963,141.753326 
	C109.271454,141.753326 112.787010,141.753326 116.215324,141.753326 
	C116.332008,140.164139 116.431274,138.812271 116.529388,137.476044 
	C114.174622,137.201904 112.070351,136.956924 109.966080,136.711945 
	C109.980431,136.308334 109.994781,135.904739 110.009132,135.501144 
	C111.614418,135.053619 113.219704,134.606110 115.362671,134.008713 
	C114.848015,132.630554 114.428108,131.506119 113.178619,130.248306 
z"/>
<path fill="#1F1F1E" opacity="1.000000" stroke="none" 
	d="
M200.000000,1.000002 
	C224.020889,1.000000 248.041794,1.000000 272.555359,1.360592 
	C273.505249,2.766543 273.760284,3.974696 274.450775,4.832208 
	C281.739990,13.884793 288.891968,23.061361 296.517395,31.824673 
	C300.939972,36.907230 306.154602,41.300579 310.971436,46.363876 
	C305.814331,57.377102 300.698639,68.030525 295.286224,79.301826 
	C294.445953,77.827782 294.005798,77.149826 293.656006,76.428070 
	C286.116455,60.872234 278.481323,45.361053 271.139771,29.712185 
	C269.569305,26.364649 267.807770,25.088186 264.047119,26.532726 
	C274.325775,47.768585 284.569275,68.931847 295.132172,90.754982 
	C301.751251,77.289246 307.964539,64.649071 314.561310,52.008171 
	C315.967438,52.006134 316.990082,52.004826 317.971375,52.363251 
	C310.446106,68.126457 302.962158,83.529930 295.031769,99.852242 
	C282.225342,73.366013 269.968079,48.015560 257.325500,21.868231 
	C261.334534,21.868231 264.456573,22.099728 267.528717,21.807257 
	C271.047607,21.472250 272.751923,22.815344 274.224121,26.068890 
	C279.153107,36.962009 284.502930,47.664951 289.708527,58.432541 
	C291.332153,61.790977 293.009552,65.123428 294.662354,68.467781 
	C295.315887,68.387749 295.969452,68.307724 296.622986,68.227699 
	C296.622986,65.874947 297.398010,63.162098 296.498932,61.227077 
	C289.989014,47.216175 283.164124,33.351002 276.353607,19.481596 
	C275.839233,18.434074 274.684174,16.973671 273.795532,16.951252 
	C265.927551,16.752775 258.052460,16.835972 249.402664,16.835972 
	C256.092041,30.737217 262.379730,43.711617 268.586365,56.724682 
	C276.731384,73.801857 284.812469,90.909508 292.528656,108.001938 
	C290.260376,107.205627 287.964203,106.854614 286.579926,105.541962 
	C279.902466,99.210022 273.590424,92.491440 266.881561,86.194656 
	C264.756714,84.200317 261.805328,83.086647 259.182251,81.529694 
	C259.132355,81.489449 259.199188,81.379997 259.337128,81.036530 
	C258.919159,79.818016 258.363220,78.942978 257.553101,77.827545 
	C248.779251,58.646019 240.221298,39.721924 231.783279,20.744513 
	C230.582397,18.043673 229.257355,16.586384 225.951111,16.682991 
	C222.765701,16.776066 220.535965,17.185301 219.707245,20.706314 
	C219.336975,22.279453 218.296036,23.694740 217.190460,25.095396 
	C211.214294,17.006086 205.607147,9.003045 200.000000,1.000002 
z"/>
<path fill="#1D1C1B" opacity="1.000000" stroke="none" 
	d="
M259.232178,81.569946 
	C261.805328,83.086647 264.756714,84.200317 266.881561,86.194656 
	C273.590424,92.491440 279.902466,99.210022 286.579926,105.541962 
	C287.964203,106.854614 290.260376,107.205627 292.723511,108.165009 
	C293.876007,108.690163 294.441284,109.050148 295.020691,109.809891 
	C297.763947,117.681320 304.563934,120.946266 310.353149,125.503723 
	C308.167236,131.011917 306.092438,136.157242 304.017639,141.302582 
	C304.306854,141.682800 304.596069,142.063034 304.885254,142.443253 
	C306.394958,141.563202 308.121307,140.915176 309.366760,139.752197 
	C311.594330,137.672180 317.182556,137.839035 319.475525,139.965942 
	C320.593628,141.003098 322.387238,141.312057 324.187683,141.878036 
	C325.837341,141.582947 327.645630,140.692978 328.433075,141.248901 
	C332.760040,144.303833 336.837128,147.712662 341.000000,151.000000 
	C322.645782,151.000000 304.291534,151.000000 285.389465,150.668304 
	C281.566406,147.559647 278.291138,144.782684 275.105835,141.592346 
	C275.179230,139.226105 275.162659,137.273224 275.386810,135.536270 
	C276.319977,136.863724 277.067993,137.944931 277.694366,139.092514 
	C279.479614,142.363190 279.460114,142.373825 284.096832,141.040283 
	C280.503174,137.289352 281.539459,133.143921 282.920288,128.589722 
	C282.334198,123.289551 279.932251,121.634842 273.589569,122.063950 
	C272.661713,123.863373 272.019501,125.603745 271.691467,127.401443 
	C271.172638,130.244934 270.864288,133.126816 270.212585,135.806519 
	C267.807831,134.082443 265.417542,132.789902 263.548401,130.963867 
	C255.217453,122.825119 246.948547,114.617798 238.861099,106.238510 
	C236.850952,104.155838 235.601730,101.338753 234.338959,98.716270 
	C237.103012,95.140251 235.244812,94.054352 232.034241,94.008835 
	C225.873642,93.921471 219.684967,94.331291 213.557388,93.873276 
	C208.779404,93.516121 206.251892,95.070518 204.988647,99.692444 
	C204.504410,101.464073 202.816925,104.018402 201.399536,104.215523 
	C197.103958,104.812897 192.672272,104.431618 188.241196,104.431618 
	C188.323410,103.317268 188.261169,102.959579 188.382828,102.682671 
	C199.844376,76.593056 211.305359,50.503139 222.840530,24.446070 
	C223.381439,23.224203 224.591309,22.298471 225.489624,21.234823 
	C226.542969,22.338470 228.005264,23.260178 228.589203,24.572674 
	C239.935425,50.075104 251.183868,75.621071 262.422913,101.171051 
	C262.793884,102.014351 262.856140,102.993423 263.066345,103.927177 
	C250.644669,105.859848 250.645462,105.859497 245.751923,94.921074 
	C244.734863,92.647690 243.977432,90.194008 242.589767,88.174210 
	C241.733459,86.927849 239.923706,85.605370 238.520309,85.581276 
	C226.866302,85.381172 215.206177,85.404404 203.551254,85.581642 
	C202.252335,85.601395 200.376038,86.694229 199.793991,87.820084 
	C197.670029,91.928551 195.981216,96.262001 193.996552,100.813087 
	C196.168808,100.813087 197.947159,100.813087 199.781219,100.813087 
	C200.664429,98.673508 201.726807,96.743469 202.257156,94.676910 
	C203.262177,90.760727 205.557159,89.748581 209.490173,89.910728 
	C217.802902,90.253418 226.142883,90.152710 234.464584,89.947128 
	C237.517441,89.871712 239.273788,90.551086 240.370911,93.667938 
	C241.911606,98.045044 243.925690,102.277626 246.042206,106.416077 
	C246.654739,107.613739 248.286270,109.020035 249.495361,109.062675 
	C256.569031,109.312080 263.655975,109.185043 271.423218,109.185043 
	C267.113037,99.421654 263.172607,90.495804 259.232178,81.569946 
M226.056229,29.807325 
	C225.497437,30.339479 224.717529,30.768045 224.412521,31.419085 
	C218.291931,44.483212 212.176956,57.550541 206.181931,70.672546 
	C204.587631,74.162170 203.395187,77.835403 201.883667,81.775055 
	C214.720963,81.775055 227.135941,81.775055 240.161484,81.775055 
	C235.352158,71.170647 230.680817,60.870518 225.647507,49.772270 
	C222.111069,58.359154 218.989807,65.937897 215.615234,74.131737 
	C224.341736,74.392372 221.963242,66.059654 226.078018,62.891930 
	C228.237854,67.665482 230.378601,72.396835 232.664139,77.448204 
	C224.633118,77.448204 217.462067,77.448204 209.780350,77.448204 
	C215.094040,64.765007 220.201324,52.574455 225.596420,39.696960 
	C226.585648,41.786674 227.318848,43.245243 227.975906,44.737335 
	C235.680740,62.233643 243.453430,79.700905 251.001541,97.264656 
	C252.457001,100.651398 254.236221,101.951401 257.972748,100.468391 
	C247.459396,77.043777 236.982101,53.699512 226.056229,29.807325 
z"/>
<path fill="#1F1F1E" opacity="1.000000" stroke="none" 
	d="
M341.468658,151.000000 
	C336.837128,147.712662 332.760040,144.303833 328.433075,141.248901 
	C327.645630,140.692978 325.837341,141.582947 324.236786,141.503784 
	C323.267120,138.807129 322.561005,136.412140 321.875061,133.690872 
	C321.297058,132.236496 320.698883,131.108398 320.057129,129.608200 
	C319.555298,128.017487 319.344727,126.605354 318.579803,125.626320 
	C317.474854,124.212013 316.047089,122.264877 314.608978,122.130615 
	C313.332214,122.011406 311.853729,124.053032 310.464264,125.140846 
	C304.563934,120.946266 297.763947,117.681320 295.302948,109.674225 
	C297.020905,106.563766 298.604980,104.054283 299.899658,101.403481 
	C311.351624,77.956177 322.752258,54.483822 334.482178,31.097214 
	C335.578339,31.873657 336.360413,32.571751 337.082672,33.616947 
	C324.891693,58.786308 312.760468,83.608566 300.596649,108.497612 
	C304.492859,109.995903 306.317108,108.900543 307.792389,105.702255 
	C311.821777,96.966965 316.200958,88.393059 320.770264,79.931053 
	C326.501617,84.671577 331.775726,89.400414 337.340088,93.758720 
	C344.037659,99.004616 350.981964,103.935501 357.991760,109.324905 
	C359.108643,109.824867 360.053223,110.002670 361.082458,110.502579 
	C367.705139,115.551285 374.243225,120.277878 380.947937,125.352112 
	C384.417847,126.355591 385.566437,128.326523 385.178864,131.652100 
	C384.892426,134.109512 384.888245,136.664688 385.251343,139.102875 
	C385.409607,140.165878 386.801971,141.045090 387.633911,142.007751 
	C388.378052,140.994919 389.537323,140.069733 389.773834,138.949677 
	C390.178955,137.031326 390.006805,134.991074 390.413269,133.082397 
	C398.278412,137.628464 405.841064,142.038834 413.314117,146.596207 
	C415.348175,147.836639 417.112091,149.519943 419.000000,151.000000 
	C393.312439,151.000000 367.624878,151.000000 341.468658,151.000000 
M361.952850,139.107071 
	C361.963409,134.315720 362.113525,129.517227 361.868805,124.738930 
	C361.818817,123.763786 360.285431,122.864632 359.435822,121.930458 
	C358.627686,122.899170 357.267059,123.791672 357.120880,124.851669 
	C356.762665,127.448967 356.964905,130.123550 356.352997,132.493622 
	C354.641296,129.967224 352.929596,127.440819 350.950317,124.192123 
	C349.285797,123.240494 347.621307,122.288857 345.322998,120.974876 
	C345.322998,128.740829 345.322998,135.260773 345.322998,141.651779 
	C348.664032,142.609192 350.035004,141.590759 349.811066,138.369675 
	C349.662384,136.230453 349.820251,134.069931 350.498047,132.191086 
	C352.203613,134.847046 353.720795,137.651947 355.668884,140.116150 
	C357.534332,142.475769 359.836151,143.874512 361.952850,139.107071 
z"/>
<path fill="#252423" opacity="1.000000" stroke="none" 
	d="
M304.000000,1.000000 
	C328.020905,1.000000 352.041779,1.000000 376.556030,1.359660 
	C380.786957,5.730941 384.334473,9.948026 388.348724,13.660514 
	C390.139496,15.316712 392.868744,15.958127 395.314392,17.350143 
	C416.690460,39.270748 437.924194,60.901310 460.180511,83.573578 
	C460.180511,76.808769 460.180511,71.406387 460.555298,66.003113 
	C461.929443,66.002129 462.928833,66.002037 464.012573,66.463852 
	C464.096893,79.318108 464.096893,91.710442 464.096893,104.458183 
	C442.881348,83.791069 422.234924,63.678352 400.821381,42.818348 
	C400.821381,50.016556 400.821381,56.008488 400.505096,61.933727 
	C399.152100,61.578396 398.115356,61.289761 396.992554,60.539307 
	C396.906433,51.216076 396.906433,42.354660 396.906433,33.234211 
	C418.387604,53.953629 439.350098,74.172737 459.984863,94.075752 
	C460.696289,91.187256 459.497009,88.450081 456.707123,85.677261 
	C441.014221,70.080414 425.509552,54.293690 409.989319,38.523872 
	C404.329254,32.772778 398.802979,26.889994 393.215668,21.067289 
	C392.750244,21.313547 392.284851,21.559803 391.819427,21.806061 
	C391.819427,36.870892 391.819427,51.935719 391.490479,66.914360 
	C387.799164,64.885689 384.436768,62.943207 380.988037,60.538971 
	C380.901703,45.807606 380.901703,31.538000 380.901703,17.180326 
	C378.969757,17.180326 377.697906,17.180326 375.930267,17.180326 
	C375.930267,46.266754 375.930267,75.164436 375.930267,104.120407 
	C371.372467,104.120407 367.315491,104.120407 362.853912,104.120407 
	C362.853912,94.975662 362.852539,86.180534 362.854187,77.385414 
	C362.857422,60.232517 362.850067,43.079597 362.875671,25.926731 
	C362.881744,21.869219 362.933899,21.869297 367.048035,22.217899 
	C367.048035,48.085938 367.048035,73.998680 367.048035,100.311386 
	C368.935577,100.064041 370.302948,99.884865 371.613220,99.713165 
	C371.613220,71.999290 371.613220,44.749130 371.613220,17.251650 
	C366.956940,17.251650 362.554962,17.251650 358.131531,17.251650 
	C358.014832,19.016582 357.916168,20.508476 357.501953,21.912567 
	C354.940063,20.549410 352.693756,19.274059 350.204712,17.602728 
	C336.198914,15.434068 336.201721,15.435471 330.212036,27.425924 
	C329.773560,28.303728 329.253021,29.140545 328.471832,29.919249 
	C327.425873,29.178076 326.678680,28.514076 325.974854,27.493317 
	C327.503784,23.902479 328.989441,20.668400 330.460815,17.465353 
	C325.110962,14.946610 324.455994,19.339598 322.375153,21.906239 
	C315.322510,15.501837 307.233063,10.358087 304.000000,1.000000 
z"/>
<path fill="#0F0F0F" opacity="1.000000" stroke="none" 
	d="
M50.000996,109.347038 
	C53.529766,114.918228 56.837162,120.646965 60.655598,126.011993 
	C63.854851,130.507065 67.650841,134.577438 71.570374,139.290833 
	C72.637283,140.554459 73.316429,141.363098 73.995567,142.171738 
	C74.944397,144.883514 75.893219,147.595291 76.921021,150.653534 
	C51.734421,151.000000 26.468842,151.000000 1.000000,151.000000 
	C1.000000,121.979424 1.000000,92.958366 1.337889,63.544777 
	C3.111001,64.452568 4.982840,65.498955 5.910741,67.094353 
	C12.030835,77.616982 17.898905,88.285965 23.983286,98.829819 
	C24.904909,100.426933 26.524647,101.621185 27.890717,103.449753 
	C27.959963,105.504112 27.959963,107.110497 27.959963,109.347038 
	C35.579002,109.347038 42.789997,109.347038 50.000996,109.347038 
z"/>
<path fill="#202020" opacity="1.000000" stroke="none" 
	d="
M380.781311,125.004471 
	C374.243225,120.277878 367.705139,115.551285 361.546509,110.433929 
	C366.745239,110.035904 371.574890,109.832138 376.380371,110.085846 
	C379.982513,110.276016 381.006256,108.810478 380.921387,105.436501 
	C380.783722,99.962898 381.004730,94.480286 381.432617,89.026566 
	C385.133484,90.702370 388.476013,92.353073 391.884460,94.466736 
	C391.950378,99.880974 391.950378,104.832268 391.950378,109.656601 
	C395.773560,110.662491 396.997162,109.209076 396.898346,105.953957 
	C396.817993,103.307411 397.007202,100.652672 397.451294,98.001282 
	C398.824158,98.002037 399.822662,98.003098 400.887939,98.463387 
	C400.954773,102.293083 400.954773,105.663544 400.954773,108.985703 
	C406.151337,108.985703 410.573303,108.985703 415.262817,109.203484 
	C420.065338,112.113556 424.496368,115.003258 429.156738,117.457550 
	C439.233673,122.764389 449.336700,128.039093 459.606415,132.956589 
	C466.581726,136.296616 473.858215,139.007675 481.000000,142.000000 
	C481.000000,144.981384 481.000000,147.962784 481.000000,151.000000 
	C460.645813,151.000000 440.291565,151.000000 419.468658,151.000000 
	C417.112091,149.519943 415.348175,147.836639 413.314117,146.596207 
	C405.841064,142.038834 398.278412,137.628464 390.340393,132.659058 
	C389.979797,129.670792 388.974640,126.755707 392.816925,125.902458 
	C393.240692,125.808342 393.682373,124.126999 393.474945,123.353653 
	C393.288177,122.657204 392.255524,121.766792 391.536346,121.709465 
	C388.926727,121.501472 386.226166,121.264664 383.696747,121.750717 
	C382.558533,121.969452 381.743164,123.868080 380.781311,125.004471 
M420.029083,121.291862 
	C417.760010,122.284157 414.472443,122.646431 413.400543,124.379257 
	C409.066101,131.386368 416.738037,132.765915 420.678528,136.111771 
	C417.519257,136.849884 415.343781,137.358124 413.168335,137.866379 
	C413.129913,138.623337 413.091522,139.380280 413.053131,140.137238 
	C415.643951,140.674850 418.475342,142.089951 420.747955,141.466888 
	C422.502960,140.985718 424.813446,137.800949 424.611420,136.084885 
	C424.347229,133.840622 421.964813,131.759735 420.267365,129.805099 
	C419.367554,128.768982 417.989075,128.148560 416.487549,127.104706 
	C419.747955,126.316307 421.917969,125.791580 425.488556,124.928177 
	C423.041687,123.206306 421.887482,122.394073 420.029083,121.291862 
z"/>
<path fill="#121212" opacity="1.000000" stroke="none" 
	d="
M4.000000,1.000000 
	C16.020895,1.000000 28.041788,1.000000 40.555553,1.373530 
	C41.687386,3.449281 42.388248,5.131295 42.951954,6.858082 
	C44.008087,10.093337 44.984791,13.354523 45.540844,16.690607 
	C42.486801,16.776291 39.886440,16.776291 37.369221,16.776291 
	C37.369221,31.287975 37.369221,45.164604 37.369221,59.074802 
	C45.750992,59.074802 53.757698,59.366879 61.732140,58.985023 
	C68.456581,58.663021 72.024147,54.392887 72.344841,47.461239 
	C72.656151,40.732517 69.737434,36.085625 63.745228,35.448624 
	C58.052929,34.843494 52.245819,35.318398 46.569893,35.318398 
	C45.007977,48.878090 45.482578,50.520634 51.056942,50.019661 
	C51.056942,46.809486 51.056942,43.545490 51.056942,39.914967 
	C54.953876,39.914967 58.413776,39.850342 61.870209,39.932255 
	C65.701973,40.023056 67.642899,42.278095 67.910461,45.908024 
	C68.192680,49.736858 67.096451,53.466164 62.829971,53.789082 
	C55.937450,54.310760 48.976578,53.929363 41.538128,53.929363 
	C41.538128,44.727562 41.527023,35.599228 41.549454,26.470976 
	C41.553040,25.011307 41.706841,23.552004 41.873501,20.668667 
	C52.199200,21.669008 62.183014,22.636229 72.107239,24.004589 
	C71.565926,25.342453 71.084213,26.279175 70.207481,27.157471 
	C62.073032,26.565666 54.333603,26.032290 46.109451,25.465506 
	C46.274101,27.837132 46.368633,29.198742 46.492939,30.989262 
	C52.524529,30.989262 58.172737,30.811750 63.805004,31.035559 
	C70.393974,31.297384 74.992577,34.793346 76.470490,41.085423 
	C79.109093,52.319046 76.236473,62.905113 61.571724,63.391079 
	C53.492947,63.658794 45.398014,63.439011 37.147720,63.439011 
	C37.147720,76.501083 37.147720,88.602142 37.147720,101.110619 
	C38.668015,101.020172 40.027576,100.939278 41.828438,100.832130 
	C41.828438,89.809120 41.828438,79.222191 41.828438,68.207512 
	C47.922092,68.207512 53.554440,68.266174 59.185188,68.196350 
	C75.162605,67.998230 81.516998,61.881149 82.619598,46.049061 
	C84.146584,46.392761 85.358368,46.715366 86.589783,47.442207 
	C85.228699,65.381363 77.676315,72.382019 60.030663,72.463783 
	C55.448189,72.485016 50.865532,72.466980 45.840248,72.466980 
	C45.840248,83.405098 45.840248,93.648582 45.840248,103.774231 
	C41.310589,103.774231 37.263889,103.774231 32.835640,103.774231 
	C32.835640,74.667221 32.835640,45.934803 32.835640,16.939007 
	C31.026669,17.054020 29.628893,17.142889 27.821486,17.257801 
	C27.821486,27.406258 27.821486,37.203846 27.498743,46.910133 
	C26.207569,45.735687 24.978195,44.791733 24.313910,43.546364 
	C20.569996,36.527462 16.779984,29.522808 13.359251,22.344805 
	C10.018715,15.335088 7.102493,8.123159 4.000000,1.000000 
z"/>
<path fill="#232322" opacity="1.000000" stroke="none" 
	d="
M481.000000,141.531342 
	C473.858215,139.007675 466.581726,136.296616 459.606415,132.956589 
	C449.336700,128.039093 439.233673,122.764389 429.156738,117.457550 
	C424.496368,115.003258 420.065338,112.113556 415.271423,108.735809 
	C415.014984,97.067001 414.839691,86.079224 415.112122,75.102562 
	C415.213470,71.018433 413.932404,68.271103 409.899841,65.949005 
	C409.899841,79.023865 409.899841,91.573845 409.899841,103.947136 
	C405.558655,105.360611 405.845673,102.743874 405.848724,100.309883 
	C405.866302,86.331070 405.852386,72.352211 405.888275,58.373459 
	C405.890839,57.380924 406.206848,56.389198 406.346252,55.577026 
	C423.235504,72.264778 440.069824,88.609894 456.503113,105.348724 
	C460.357697,109.274963 464.119843,109.708885 469.179382,108.680389 
	C469.179382,105.626457 469.179382,102.814301 469.570435,100.092850 
	C473.641022,100.455696 477.320496,100.727844 481.000000,101.000000 
	C481.000000,114.354225 481.000000,127.708458 481.000000,141.531342 
z"/>
<path fill="#1A1919" opacity="1.000000" stroke="none" 
	d="
M162.001221,76.000465 
	C161.707306,75.519646 161.413406,75.038834 160.994141,73.933380 
	C160.579514,71.938927 160.290237,70.569099 160.228851,68.943375 
	C170.635590,59.854649 172.091141,48.532558 168.844498,36.420231 
	C165.706604,24.713634 156.615891,19.338427 145.351089,17.813887 
	C137.655167,16.772350 129.792374,16.963671 121.934273,16.372171 
	C121.576431,15.760561 121.288521,15.380575 121.000610,15.000588 
	C121.000587,14.555840 121.000565,14.111094 121.201790,13.053080 
	C122.410118,7.829482 119.850525,5.502147 116.001068,4.000440 
	C116.001068,4.000440 116.000000,4.000000 115.999924,3.624621 
	C115.999901,2.499495 115.999947,1.749748 116.000000,1.000000 
	C130.020889,1.000000 144.041794,1.000000 158.555481,1.363048 
	C161.223282,5.595374 163.128220,9.648804 165.619522,13.302402 
	C177.085144,30.117161 188.714325,46.820377 200.206909,63.897854 
	C194.727859,76.154556 189.326736,88.076996 183.616272,99.892410 
	C181.205032,98.190376 179.103119,96.595375 177.001221,95.000374 
	C175.488312,93.484047 173.975388,91.967728 172.209412,89.866898 
	C170.971298,87.855087 169.986252,86.427788 169.001205,85.000481 
	C168.834351,85.000206 168.667480,84.999924 168.225800,84.623398 
	C166.634399,82.164932 165.317810,80.082695 164.001221,78.000450 
	C164.001221,78.000450 164.000000,78.000000 163.908463,77.711166 
	C163.211685,76.948372 162.606461,76.474419 162.001221,76.000465 
z"/>
<path fill="#1A1919" opacity="1.000000" stroke="none" 
	d="
M234.002762,98.859245 
	C235.601730,101.338753 236.850952,104.155838 238.861099,106.238510 
	C246.948547,114.617798 255.217453,122.825119 263.548401,130.963867 
	C265.417542,132.789902 267.807831,134.082443 270.252808,136.230865 
	C270.958160,139.047379 269.625153,142.473068 274.296082,141.922165 
	C274.531677,141.979507 275.015900,142.005707 275.015900,142.005707 
	C278.291138,144.782684 281.566406,147.559647 284.920837,150.668304 
	C265.979095,151.000000 246.958206,151.000000 227.468658,151.000000 
	C224.207977,148.048111 221.415955,145.096222 218.264236,141.695526 
	C215.737701,136.142059 213.683258,130.984848 211.336197,125.964455 
	C210.624283,124.441666 209.099106,122.230316 207.954437,122.235123 
	C206.334763,122.241928 204.722534,124.012451 203.107117,125.029129 
	C198.755325,119.978004 194.403519,114.926880 190.487473,109.457870 
	C193.251312,109.032578 195.627289,108.720352 197.898193,109.077042 
	C203.841873,110.010605 207.626678,108.196678 209.128906,101.960533 
	C209.460022,100.585983 211.681946,98.753563 213.087021,98.705444 
	C220.049026,98.467079 227.029068,98.756104 234.002762,98.859245 
M240.281235,133.797836 
	C240.273926,130.672989 240.411835,127.537071 240.175140,124.429688 
	C240.099243,123.433342 239.033142,122.512428 238.420074,121.557014 
	C237.689850,122.573952 236.406662,123.551666 236.331253,124.615028 
	C236.087738,128.048584 236.288574,131.513657 236.107208,135.701584 
	C236.426132,140.552979 239.549042,142.106033 243.817062,142.008743 
	C247.841187,141.916962 250.463501,139.611191 250.912140,135.740494 
	C251.366318,131.821808 251.142166,127.808899 250.978287,123.847054 
	C250.944733,123.035629 249.861038,122.267632 249.261398,121.479622 
	C248.464798,122.329185 247.101242,123.104431 246.978302,124.042297 
	C246.615036,126.813606 247.181137,129.757141 246.525711,132.422302 
	C246.076569,134.248489 244.194443,135.722229 242.380295,137.138916 
	C241.983475,137.047592 241.586655,136.956268 241.084198,136.263687 
	C240.804901,135.737122 240.525604,135.210556 240.281235,133.797836 
z"/>
<path fill="#272727" opacity="1.000000" stroke="none" 
	d="
M395.172089,17.060102 
	C392.868744,15.958127 390.139496,15.316712 388.348724,13.660514 
	C384.334473,9.948026 380.786957,5.730941 377.024719,1.359660 
	C394.020905,1.000000 411.041779,1.000000 428.607239,1.335443 
	C430.232697,2.866337 431.212524,4.176116 432.412537,5.236894 
	C436.904694,9.207925 441.468872,13.097525 445.994995,17.485058 
	C445.984222,29.412945 446.077484,40.874638 445.929474,52.333210 
	C445.883636,55.882492 447.344055,58.067070 450.992432,60.230206 
	C450.992432,46.923500 450.992432,34.413719 450.992432,21.911160 
	C455.613037,21.911160 459.668854,21.911160 463.928223,21.911160 
	C463.928223,36.845463 463.928223,51.423706 463.928223,66.001945 
	C462.928833,66.002037 461.929443,66.002129 460.486694,65.538589 
	C460.043365,52.134441 460.043365,39.193916 460.043365,25.869740 
	C458.083710,26.084028 456.713409,26.233868 454.853790,26.437218 
	C454.853790,41.300449 454.853790,55.797386 454.853790,70.294327 
	C454.426178,70.537186 453.998535,70.780037 453.570923,71.022896 
	C452.593994,69.684341 451.764740,68.201271 450.617767,67.029060 
	C435.488617,51.566895 420.235107,36.225288 405.220215,20.653421 
	C402.264557,17.588108 399.332062,16.006929 395.172089,17.060102 
z"/>
<path fill="#1C1B1B" opacity="1.000000" stroke="none" 
	d="
M200.284851,63.563599 
	C188.714325,46.820377 177.085144,30.117161 165.619522,13.302402 
	C163.128220,9.648804 161.223282,5.595374 159.024139,1.363048 
	C172.354233,1.000000 185.708450,1.000000 199.531342,1.000002 
	C205.607147,9.003045 211.214294,17.006086 217.068359,25.449314 
	C211.638474,38.447533 205.961655,51.005566 200.284851,63.563599 
z"/>
<path fill="#171615" opacity="1.000000" stroke="none" 
	d="
M45.994530,16.604923 
	C44.984791,13.354523 44.008087,10.093337 42.951954,6.858082 
	C42.388248,5.131295 41.687386,3.449281 41.024212,1.373530 
	C57.687561,1.000000 74.375122,1.000000 91.531342,1.000000 
	C94.830688,6.971930 96.059052,13.919877 102.675293,18.382036 
	C103.035713,39.616505 102.978638,60.309181 102.921562,81.001862 
	C99.430786,76.629898 95.873703,72.308472 92.483215,67.860069 
	C91.200989,66.177765 90.303421,64.202286 89.079132,61.669769 
	C89.659294,55.080883 91.126389,49.163536 90.973572,43.288319 
	C90.625443,29.904552 82.521049,20.208126 69.321510,17.876163 
	C61.708603,16.531191 53.780670,16.969351 45.994530,16.604923 
z"/>
<path fill="#101010" opacity="1.000000" stroke="none" 
	d="
M3.500000,1.000000 
	C7.102493,8.123159 10.018715,15.335088 13.359251,22.344805 
	C16.779984,29.522808 20.569996,36.527462 24.313910,43.546364 
	C24.978195,44.791733 26.207569,45.735687 27.568020,47.374191 
	C27.913851,66.286964 27.867662,84.644371 27.821472,103.001778 
	C26.524647,101.621185 24.904909,100.426933 23.983286,98.829819 
	C17.898905,88.285965 12.030835,77.616982 5.910741,67.094353 
	C4.982840,65.498955 3.111001,64.452568 1.337889,63.076118 
	C1.000000,43.320408 0.986220,23.640785 1.031961,3.961301 
	C1.034913,2.691166 -0.031141,0.390120 3.500000,1.000000 
z"/>
<path fill="#292928" opacity="1.000000" stroke="none" 
	d="
M446.006042,17.017656 
	C441.468872,13.097525 436.904694,9.207925 432.412537,5.236894 
	C431.212524,4.176116 430.232697,2.866337 429.075867,1.335443 
	C446.262146,1.000000 463.524323,1.000000 481.000000,1.000000 
	C481.000000,19.020332 481.000000,37.041508 480.626099,55.507164 
	C476.560974,54.635937 472.869751,53.320232 469.109009,51.540138 
	C469.039429,39.728844 469.039429,28.381939 469.039429,17.017651 
	C460.868591,17.017651 453.437317,17.017651 446.006042,17.017656 
z"/>
<path fill="#252421" opacity="1.000000" stroke="none" 
	d="
M303.531342,1.000000 
	C307.233063,10.358087 315.322510,15.501837 322.282166,22.234848 
	C318.671326,30.437443 314.842041,38.220760 311.012787,46.004074 
	C306.154602,41.300579 300.939972,36.907230 296.517395,31.824673 
	C288.891968,23.061361 281.739990,13.884793 274.450775,4.832208 
	C273.760284,3.974696 273.505249,2.766543 273.024048,1.360592 
	C283.020905,1.000000 293.041779,1.000000 303.531342,1.000000 
z"/>
<path fill="#252525" opacity="1.000000" stroke="none" 
	d="
M469.178558,52.004524 
	C472.869751,53.320232 476.560974,54.635937 480.626099,55.975822 
	C481.000000,70.687561 481.000000,85.375122 481.000000,100.531342 
	C477.320496,100.727844 473.641022,100.455696 469.501526,99.628510 
	C469.087219,83.383820 469.132904,67.694168 469.178558,52.004524 
z"/>
<path fill="#1A1917" opacity="1.000000" stroke="none" 
	d="
M115.625000,1.000000 
	C115.999947,1.749748 115.999901,2.499495 115.999771,3.624085 
	C115.048943,3.213789 114.098190,2.428651 113.073715,1.321757 
	C113.750000,1.000000 114.500000,1.000000 115.625000,1.000000 
z"/>
<path fill="#F5C659" opacity="1.000000" stroke="none" 
	d="
M200.206909,63.897850 
	C205.961655,51.005566 211.638474,38.447533 217.437378,25.535583 
	C218.296036,23.694740 219.336975,22.279453 219.707245,20.706314 
	C220.535965,17.185301 222.765701,16.776066 225.951111,16.682991 
	C229.257355,16.586384 230.582397,18.043673 231.783279,20.744513 
	C240.221298,39.721924 248.779251,58.646019 257.578339,78.130569 
	C258.304932,79.575989 258.752045,80.477997 259.199188,81.379997 
	C259.199188,81.379997 259.132355,81.489449 259.182251,81.529701 
	C263.172607,90.495804 267.113037,99.421654 271.423218,109.185043 
	C263.655975,109.185043 256.569031,109.312080 249.495361,109.062675 
	C248.286270,109.020035 246.654739,107.613739 246.042206,106.416077 
	C243.925690,102.277626 241.911606,98.045044 240.370911,93.667938 
	C239.273788,90.551086 237.517441,89.871712 234.464584,89.947128 
	C226.142883,90.152710 217.802902,90.253418 209.490173,89.910728 
	C205.557159,89.748581 203.262177,90.760727 202.257156,94.676910 
	C201.726807,96.743469 200.664429,98.673508 199.781219,100.813087 
	C197.947159,100.813087 196.168808,100.813087 193.996552,100.813087 
	C195.981216,96.262001 197.670029,91.928551 199.793991,87.820084 
	C200.376038,86.694229 202.252335,85.601395 203.551254,85.581642 
	C215.206177,85.404404 226.866302,85.381172 238.520309,85.581276 
	C239.923706,85.605370 241.733459,86.927849 242.589767,88.174210 
	C243.977432,90.194008 244.734863,92.647690 245.751923,94.921074 
	C250.645462,105.859497 250.644669,105.859848 263.066345,103.927177 
	C262.856140,102.993423 262.793884,102.014351 262.422913,101.171051 
	C251.183868,75.621071 239.935425,50.075104 228.589203,24.572674 
	C228.005264,23.260178 226.542969,22.338470 225.489624,21.234823 
	C224.591309,22.298471 223.381439,23.224203 222.840530,24.446070 
	C211.305359,50.503139 199.844376,76.593056 188.382828,102.682671 
	C188.261169,102.959579 188.323410,103.317268 188.241196,104.431618 
	C192.672272,104.431618 197.103958,104.812897 201.399536,104.215523 
	C202.816925,104.018402 204.504410,101.464073 204.988647,99.692444 
	C206.251892,95.070518 208.779404,93.516121 213.557388,93.873276 
	C219.684967,94.331291 225.873642,93.921471 232.034241,94.008835 
	C235.244812,94.054352 237.103012,95.140251 234.338959,98.716270 
	C227.029068,98.756104 220.049026,98.467079 213.087021,98.705444 
	C211.681946,98.753563 209.460022,100.585983 209.128906,101.960533 
	C207.626678,108.196678 203.841873,110.010605 197.898193,109.077042 
	C195.627289,108.720352 193.251312,109.032578 190.460754,109.109207 
	C187.037476,109.178429 184.076691,109.178429 180.432892,109.178429 
	C181.415329,106.646767 182.168152,104.706825 183.173676,102.192177 
	C183.592789,101.078117 183.759201,100.538780 183.925613,99.999443 
	C189.326736,88.076996 194.727859,76.154556 200.206909,63.897850 
z"/>
<path fill="#F3C458" opacity="1.000000" stroke="none" 
	d="
M103.006653,81.463638 
	C102.978638,60.309181 103.035713,39.616505 103.007050,18.462049 
	C104.358223,17.498466 105.795135,16.996656 107.876526,16.269777 
	C107.876526,45.941719 107.876526,74.834908 107.876526,104.096024 
	C112.371742,104.096024 116.426483,104.096024 120.963760,104.096024 
	C120.963760,93.206909 120.963760,82.275421 120.963760,70.954666 
	C124.204277,70.771782 127.011589,70.754059 129.780457,70.418770 
	C132.740082,70.060402 134.245667,71.415443 135.549393,73.924843 
	C140.147766,82.775810 145.105927,91.442299 149.593216,100.347252 
	C151.172302,103.480919 153.024139,104.835823 156.517868,104.514786 
	C159.607880,104.230843 162.744614,104.455299 166.874329,104.455299 
	C161.843353,94.864571 157.257874,86.123070 152.672379,77.381569 
	C152.895157,76.885567 153.117920,76.389565 153.340698,75.893570 
	C154.881439,76.390511 157.253845,76.421387 157.833984,77.456650 
	C163.506851,87.579651 168.880692,97.870216 174.880798,109.128662 
	C166.027969,109.128662 158.009476,109.237663 150.002197,108.987831 
	C149.024109,108.957314 147.859283,107.134773 147.199615,105.916122 
	C142.293533,96.852692 137.589859,87.678192 132.575485,78.676231 
	C131.609787,76.942589 129.556107,75.814995 128.004318,74.407822 
	C127.391655,74.757851 126.778992,75.107880 126.166328,75.457901 
	C126.166328,86.367561 126.166328,97.277222 126.099579,108.660072 
	C118.583244,109.133263 111.133667,109.133263 103.091751,109.133263 
	C103.091751,99.798279 103.091751,90.861847 103.006653,81.463638 
z"/>
<path fill="#F4C659" opacity="1.000000" stroke="none" 
	d="
M122.004196,16.603796 
	C129.792374,16.963671 137.655167,16.772350 145.351089,17.813887 
	C156.615891,19.338427 165.706604,24.713634 168.844498,36.420231 
	C172.091141,48.532558 170.635590,59.854649 159.965973,68.978424 
	C158.924484,69.698463 158.373749,70.127533 157.822998,70.556602 
	C154.260986,71.906815 150.698975,73.257027 146.395737,74.888206 
	C150.863419,83.325531 155.392380,91.878555 159.921341,100.431572 
	C159.612061,100.885048 159.302795,101.338524 158.993530,101.791992 
	C157.125458,100.656876 154.483688,99.971458 153.518784,98.311386 
	C148.440460,89.574310 143.785599,80.591110 138.967590,71.663406 
	C144.011093,69.968895 148.884323,68.331589 154.247070,66.233986 
	C163.072083,60.987682 166.636276,52.639557 165.105957,41.486198 
	C163.825455,32.153545 157.812088,25.096214 147.820999,23.242256 
	C141.047409,21.985342 133.950211,22.472462 126.997749,22.179592 
	C123.866013,22.179592 120.734276,22.179592 117.195580,22.179592 
	C117.195580,48.347828 117.195580,74.390518 117.195580,100.843781 
	C115.457809,100.954437 114.098717,101.040985 112.425713,101.147514 
	C112.425713,72.919716 112.425713,45.069466 112.425713,16.773634 
	C114.834244,16.773634 116.969742,16.773634 119.880325,16.772230 
	C121.105003,16.715149 121.554604,16.659473 122.004196,16.603796 
z"/>
<path fill="#F0C258" opacity="1.000000" stroke="none" 
	d="
M146.967072,54.895397 
	C139.474060,57.601929 128.867004,58.448467 121.344032,56.877617 
	C121.344032,52.999229 121.344032,49.074768 121.344032,44.807621 
	C122.890182,44.807621 124.267181,44.807621 125.862091,44.807621 
	C125.977158,47.440773 126.083794,49.880951 126.205566,52.667732 
	C132.819275,52.660702 139.294662,53.769440 145.574356,49.282906 
	C147.813400,42.660686 145.162964,40.161552 136.997787,40.185081 
	C131.925110,40.185081 126.852440,40.185081 121.453873,40.185081 
	C121.453873,35.354832 121.453873,31.005756 121.453873,26.245960 
	C122.986488,26.147905 124.557289,26.047407 127.026329,25.948448 
	C133.693420,26.248489 139.536240,26.072630 145.213577,26.957960 
	C153.490829,28.248726 159.110931,33.225929 160.711487,41.611084 
	C162.323578,50.056683 160.580765,57.628101 152.960541,62.879269 
	C143.444565,67.459763 133.241241,66.519287 123.179634,66.369598 
	C122.297813,66.356483 121.447983,64.192123 120.712372,63.200909 
	C130.813873,61.699234 140.061935,60.324429 149.914932,58.582451 
	C156.452850,54.563015 156.852554,48.823616 155.936737,42.871254 
	C155.074203,37.265327 151.504471,33.235958 146.076630,32.213577 
	C139.663864,31.005684 133.029266,30.975576 126.681519,30.450659 
	C125.437843,34.075867 126.175476,35.258968 129.253143,35.184193 
	C133.057724,35.091763 136.890671,35.217159 140.677734,35.589905 
	C145.556351,36.070080 149.770447,37.844070 151.331818,43.095963 
	C152.810760,48.070629 150.552155,51.749207 146.967072,54.895397 
z"/>
<path fill="#1A1917" opacity="1.000000" stroke="none" 
	d="
M152.988525,63.224129 
	C160.580765,57.628101 162.323578,50.056683 160.711487,41.611084 
	C159.110931,33.225929 153.490829,28.248726 145.213577,26.957960 
	C139.536240,26.072630 133.693420,26.248489 127.461037,25.882450 
	C126.997925,24.845491 126.998344,23.876070 126.998260,22.543119 
	C133.950211,22.472462 141.047409,21.985342 147.820999,23.242256 
	C157.812088,25.096214 163.825455,32.153545 165.105957,41.486198 
	C166.636276,52.639557 163.072083,60.987682 154.417664,65.904427 
	C153.737991,65.213104 153.377243,64.391045 152.988525,63.224129 
z"/>
<path fill="#AD8D43" opacity="1.000000" stroke="none" 
	d="
M203.063416,125.400558 
	C204.722534,124.012451 206.334763,122.241928 207.954437,122.235123 
	C209.099106,122.230316 210.624283,124.441666 211.336197,125.964455 
	C213.683258,130.984848 215.737701,136.142059 217.924896,141.613602 
	C215.896698,141.093170 213.906631,139.678101 211.785797,139.443069 
	C208.654327,139.096024 205.383713,139.313583 202.264053,139.837112 
	C200.661438,140.106049 199.257477,141.558655 197.763733,142.476364 
	C197.446930,142.087997 197.130127,141.699631 196.813309,141.311264 
	C198.882111,136.131516 200.950897,130.951752 203.063416,125.400558 
z"/>
<path fill="#1A1917" opacity="1.000000" stroke="none" 
	d="
M147.075653,55.280754 
	C150.552155,51.749207 152.810760,48.070629 151.331818,43.095963 
	C149.770447,37.844070 145.556351,36.070080 140.677734,35.589905 
	C136.890671,35.217159 133.057724,35.091763 129.253143,35.184193 
	C126.175476,35.258968 125.437843,34.075867 126.681519,30.450659 
	C133.029266,30.975576 139.663864,31.005684 146.076630,32.213577 
	C151.504471,33.235958 155.074203,37.265327 155.936737,42.871254 
	C156.852554,48.823616 156.452850,54.563015 150.220428,58.326637 
	C149.008728,57.514034 148.096466,56.590073 147.075653,55.280754 
z"/>
<path fill="#A58741" opacity="1.000000" stroke="none" 
	d="
M148.735596,138.466339 
	C144.122955,143.345123 140.658600,143.295792 136.885071,137.920380 
	C139.401840,137.347565 141.566071,136.854996 144.875641,136.101746 
	C140.582581,133.158493 134.960098,131.345444 137.028122,124.591782 
	C142.141052,119.984726 143.660614,119.975983 148.684921,124.871582 
	C145.949417,125.670898 143.717010,126.323204 141.125839,127.080345 
	C143.515839,131.030869 150.995789,131.349289 148.735596,138.466339 
z"/>
<path fill="#C09C49" opacity="1.000000" stroke="none" 
	d="
M173.934631,141.848801 
	C173.291519,141.175583 172.155945,140.544846 172.093552,139.821533 
	C171.866196,137.186310 172.103378,134.514511 171.961990,131.867355 
	C171.835571,129.500381 173.223618,126.290703 168.883026,125.867081 
	C168.424149,125.822289 168.165237,123.728622 167.556351,121.749443 
	C171.217850,121.749443 174.163391,121.574570 177.069931,121.834923 
	C178.243896,121.940079 179.332642,122.996674 180.460159,123.620285 
	C179.448837,124.570450 178.437515,125.520615 176.749176,126.742050 
	C175.386383,128.322815 174.220398,129.592438 174.107727,130.949524 
	C173.807724,134.562500 173.961349,138.213135 173.934631,141.848801 
z"/>
<path fill="#1A1917" opacity="1.000000" stroke="none" 
	d="
M137.076141,40.518299 
	C145.162964,40.161552 147.813400,42.660686 145.803543,48.961334 
	C142.764618,46.426491 139.959564,43.639004 137.076141,40.518299 
z"/>
<path fill="#8D743B" opacity="1.000000" stroke="none" 
	d="
M174.356323,141.877335 
	C173.961349,138.213135 173.807724,134.562500 174.107727,130.949524 
	C174.220398,129.592438 175.386383,128.322815 176.465973,126.974197 
	C176.898544,130.749039 177.114594,134.574265 176.873398,138.370468 
	C176.796005,139.588379 175.510696,140.729568 174.356323,141.877335 
z"/>
<path fill="#1A1917" opacity="1.000000" stroke="none" 
	d="
M116.077339,4.339278 
	C119.850525,5.502147 122.410118,7.829482 121.201782,12.719521 
	C119.384888,10.225524 117.769249,7.451820 116.077339,4.339278 
z"/>
<path fill="#1A1917" opacity="1.000000" stroke="none" 
	d="
M183.616272,99.892410 
	C183.759201,100.538780 183.592789,101.078117 183.208893,101.808647 
	C181.044876,99.892471 179.098328,97.785103 177.076508,95.339050 
	C179.103119,96.595375 181.205032,98.190376 183.616272,99.892410 
z"/>
<path fill="#1A1917" opacity="1.000000" stroke="none" 
	d="
M164.068573,78.344208 
	C165.317810,80.082695 166.634399,82.164932 167.975494,84.622986 
	C166.711975,82.895180 165.423950,80.791573 164.068573,78.344208 
z"/>
<path fill="#1A1917" opacity="1.000000" stroke="none" 
	d="
M169.021271,85.347321 
	C169.986252,86.427788 170.971298,87.855087 171.978180,89.640594 
	C171.013779,88.563911 170.027542,87.129028 169.021271,85.347321 
z"/>
<path fill="#1A1917" opacity="1.000000" stroke="none" 
	d="
M157.970856,70.878304 
	C158.373749,70.127533 158.924484,69.698463 159.738098,69.234329 
	C160.290237,70.569099 160.579514,71.938927 160.934082,73.653915 
	C160.039154,73.066063 159.078934,72.133034 157.970856,70.878304 
z"/>
<path fill="#1A1917" opacity="1.000000" stroke="none" 
	d="
M162.092316,76.288857 
	C162.606461,76.474419 163.211685,76.948372 163.908157,77.710617 
	C163.394073,77.525017 162.788742,77.051132 162.092316,76.288857 
z"/>
<path fill="#1A1917" opacity="1.000000" stroke="none" 
	d="
M121.934273,16.372171 
	C121.554604,16.659473 121.105003,16.715149 120.323631,16.686337 
	C120.207825,16.175591 120.423790,15.749335 120.820190,15.161835 
	C121.288521,15.380575 121.576431,15.760561 121.934273,16.372171 
z"/>
<path fill="#F7C759" opacity="1.000000" stroke="none" 
	d="
M27.890717,103.449753 
	C27.867662,84.644371 27.913851,66.286964 27.890762,47.465496 
	C27.821486,37.203846 27.821486,27.406258 27.821486,17.257801 
	C29.628893,17.142889 31.026669,17.054020 32.835640,16.939007 
	C32.835640,45.934803 32.835640,74.667221 32.835640,103.774231 
	C37.263889,103.774231 41.310589,103.774231 45.840248,103.774231 
	C45.840248,93.648582 45.840248,83.405098 45.840248,72.466980 
	C50.865532,72.466980 55.448189,72.485016 60.030663,72.463783 
	C77.676315,72.382019 85.228699,65.381363 86.697876,47.035534 
	C86.139709,35.952724 83.227226,27.145189 72.166832,23.603449 
	C62.183014,22.636229 52.199200,21.669008 41.873501,20.668667 
	C41.706841,23.552004 41.553040,25.011307 41.549454,26.470976 
	C41.527023,35.599228 41.538128,44.727562 41.538128,53.929363 
	C48.976578,53.929363 55.937450,54.310760 62.829971,53.789082 
	C67.096451,53.466164 68.192680,49.736858 67.910461,45.908024 
	C67.642899,42.278095 65.701973,40.023056 61.870209,39.932255 
	C58.413776,39.850342 54.953876,39.914967 51.056942,39.914967 
	C51.056942,43.545490 51.056942,46.809486 51.056942,50.019661 
	C45.482578,50.520634 45.007977,48.878090 46.569893,35.318398 
	C52.245819,35.318398 58.052929,34.843494 63.745228,35.448624 
	C69.737434,36.085625 72.656151,40.732517 72.344841,47.461239 
	C72.024147,54.392887 68.456581,58.663021 61.732140,58.985023 
	C53.757698,59.366879 45.750992,59.074802 37.369221,59.074802 
	C37.369221,45.164604 37.369221,31.287975 37.369221,16.776291 
	C39.886440,16.776291 42.486801,16.776291 45.540844,16.690607 
	C53.780670,16.969351 61.708603,16.531191 69.321510,17.876163 
	C82.521049,20.208126 90.625443,29.904552 90.973572,43.288319 
	C91.126389,49.163536 89.659294,55.080883 88.905617,61.355606 
	C81.048088,77.895515 66.199379,77.886452 50.611725,77.486687 
	C50.611725,88.219284 50.611725,98.459160 50.306358,109.023033 
	C42.789997,109.347038 35.579002,109.347038 27.959963,109.347038 
	C27.959963,107.110497 27.959963,105.504112 27.890717,103.449753 
z"/>
<path fill="#BA9849" opacity="1.000000" stroke="none" 
	d="
M113.593414,130.315002 
	C114.428108,131.506119 114.848015,132.630554 115.362671,134.008713 
	C113.219704,134.606110 111.614418,135.053619 110.009132,135.501144 
	C109.994781,135.904739 109.980431,136.308334 109.966080,136.711945 
	C112.070351,136.956924 114.174622,137.201904 116.529388,137.476044 
	C116.431274,138.812271 116.332008,140.164139 116.215324,141.753326 
	C112.787010,141.753326 109.271454,141.753326 105.483963,141.753326 
	C105.483963,135.200760 105.483963,128.959229 105.483963,122.324310 
	C109.020531,122.324310 112.430954,122.324310 116.152802,122.324310 
	C116.234779,123.370392 116.337891,124.686134 116.471512,126.391220 
	C115.387077,126.604607 114.296364,126.737251 113.257904,127.045784 
	C112.134521,127.379547 111.059921,127.877510 109.964050,128.303864 
	C111.035576,128.952026 112.107094,129.600159 113.593414,130.315002 
z"/>
<path fill="#AD8D43" opacity="1.000000" stroke="none" 
	d="
M75.985558,121.977753 
	C79.514519,121.216194 83.044281,121.710526 84.171120,125.337227 
	C84.822266,127.432892 83.314903,130.199219 82.149017,132.745636 
	C81.022789,131.582077 80.526566,130.336548 80.144440,128.844666 
	C79.074631,127.516640 77.890739,126.434975 76.285088,124.967979 
	C76.237595,124.493790 76.111572,123.235771 75.985558,121.977753 
z"/>
<path fill="#C09C49" opacity="1.000000" stroke="none" 
	d="
M74.229774,142.087265 
	C73.316429,141.363098 72.637283,140.554459 71.893089,139.375595 
	C71.885056,134.437225 71.804321,129.860306 72.093590,125.306923 
	C72.168175,124.132805 73.405708,123.032562 74.545906,122.412781 
	C75.614838,126.061493 76.246895,129.195816 76.886749,132.423279 
	C76.894547,132.516418 76.967499,132.688568 76.609756,132.872223 
	C75.812683,135.983398 75.373344,138.910919 74.934013,141.838425 
	C74.934013,141.838425 74.463982,142.002792 74.229774,142.087265 
z"/>
<path fill="#A58741" opacity="1.000000" stroke="none" 
	d="
M76.967499,132.688568 
	C76.967499,132.688568 76.894547,132.516418 77.106476,132.150238 
	C78.222389,130.886383 79.126366,129.988708 80.030350,129.091034 
	C80.526566,130.336548 81.022789,131.582077 81.851288,132.952972 
	C83.100128,135.783722 84.016701,138.489075 84.969109,141.300217 
	C79.448441,143.887024 79.354057,138.934357 77.331627,135.760361 
	C77.003906,134.356369 76.985703,133.522476 76.967499,132.688568 
z"/>
<path fill="#8D743B" opacity="1.000000" stroke="none" 
	d="
M80.144440,128.844666 
	C79.126366,129.988708 78.222389,130.886383 77.098679,132.057083 
	C76.246895,129.195816 75.614838,126.061493 74.979218,122.491203 
	C75.142494,122.023064 75.309334,121.990898 75.730865,121.968246 
	C76.111572,123.235771 76.237595,124.493790 76.285088,124.967979 
	C77.890739,126.434975 79.074631,127.516640 80.144440,128.844666 
z"/>
<path fill="#8D743B" opacity="1.000000" stroke="none" 
	d="
M76.609756,132.872223 
	C76.985703,133.522476 77.003906,134.356369 77.012604,135.602570 
	C76.575409,137.950989 76.147728,139.887115 75.327026,141.830841 
	C75.373344,138.910919 75.812683,135.983398 76.609756,132.872223 
z"/>
<path fill="#F5C659" opacity="1.000000" stroke="none" 
	d="
M328.770599,29.996416 
	C329.253021,29.140545 329.773560,28.303728 330.212036,27.425924 
	C336.201721,15.435471 336.198914,15.434068 349.992249,17.908855 
	C345.367157,28.407911 340.711792,38.204857 335.817749,48.261856 
	C330.533203,58.933010 325.487396,69.344116 320.441589,79.755226 
	C316.200958,88.393059 311.821777,96.966965 307.792389,105.702255 
	C306.317108,108.900543 304.492859,109.995903 300.596649,108.497612 
	C312.760468,83.608566 324.891693,58.786308 337.361389,33.392406 
	C339.295288,29.360083 340.890747,25.899401 342.486176,22.438719 
	C342.035461,22.050186 341.584778,21.661652 341.134064,21.273117 
	C339.818481,22.281816 338.132477,23.047169 337.272980,24.355511 
	C335.941711,26.381973 335.174469,28.778973 334.168030,31.018860 
	C322.752258,54.483822 311.351624,77.956177 299.899658,101.403481 
	C298.604980,104.054283 297.020905,106.563766 295.288757,109.274452 
	C294.441284,109.050148 293.876007,108.690163 293.115906,108.167114 
	C284.812469,90.909508 276.731384,73.801857 268.586365,56.724682 
	C262.379730,43.711617 256.092041,30.737217 249.402664,16.835972 
	C258.052460,16.835972 265.927551,16.752775 273.795532,16.951252 
	C274.684174,16.973671 275.839233,18.434074 276.353607,19.481596 
	C283.164124,33.351002 289.989014,47.216175 296.498932,61.227077 
	C297.398010,63.162098 296.622986,65.874947 296.622986,68.227699 
	C295.969452,68.307724 295.315887,68.387749 294.662354,68.467781 
	C293.009552,65.123428 291.332153,61.790977 289.708527,58.432541 
	C284.502930,47.664951 279.153107,36.962009 274.224121,26.068890 
	C272.751923,22.815344 271.047607,21.472250 267.528717,21.807257 
	C264.456573,22.099728 261.334534,21.868231 257.325500,21.868231 
	C269.968079,48.015560 282.225342,73.366013 295.031769,99.852242 
	C302.962158,83.529930 310.446106,68.126457 318.237640,52.133923 
	C321.953705,44.362049 325.362152,37.179230 328.770599,29.996416 
z"/>
<path fill="#F5C659" opacity="1.000000" stroke="none" 
	d="
M310.971436,46.363876 
	C314.842041,38.220760 318.671326,30.437443 322.593597,22.325518 
	C324.455994,19.339598 325.110962,14.946610 330.460815,17.465353 
	C328.989441,20.668400 327.503784,23.902479 325.702881,27.716135 
	C321.651031,36.200111 317.914429,44.104507 314.177826,52.008904 
	C307.964539,64.649071 301.751251,77.289246 295.132172,90.754982 
	C284.569275,68.931847 274.325775,47.768585 264.047119,26.532726 
	C267.807770,25.088186 269.569305,26.364649 271.139771,29.712185 
	C278.481323,45.361053 286.116455,60.872234 293.656006,76.428070 
	C294.005798,77.149826 294.445953,77.827782 295.286224,79.301826 
	C300.698639,68.030525 305.814331,57.377102 310.971436,46.363876 
z"/>
<path fill="#252421" opacity="1.000000" stroke="none" 
	d="
M314.561310,52.008175 
	C317.914429,44.104507 321.651031,36.200111 325.659576,28.072895 
	C326.678680,28.514076 327.425873,29.178076 328.471832,29.919245 
	C325.362152,37.179230 321.953705,44.362049 318.278992,51.774193 
	C316.990082,52.004826 315.967438,52.006134 314.561310,52.008175 
z"/>
<path fill="#1D1C1B" opacity="1.000000" stroke="none" 
	d="
M259.337128,81.036530 
	C258.752045,80.477997 258.304932,79.575989 257.832581,78.370956 
	C258.363220,78.942978 258.919159,79.818016 259.337128,81.036530 
z"/>
<path fill="#F4C659" opacity="1.000000" stroke="none" 
	d="
M226.280518,30.081287 
	C236.982101,53.699512 247.459396,77.043777 257.972748,100.468391 
	C254.236221,101.951401 252.457001,100.651398 251.001541,97.264656 
	C243.453430,79.700905 235.680740,62.233643 227.975906,44.737335 
	C227.318848,43.245243 226.585648,41.786674 225.596420,39.696960 
	C220.201324,52.574455 215.094040,64.765007 209.780350,77.448204 
	C217.462067,77.448204 224.633118,77.448204 232.664139,77.448204 
	C230.378601,72.396835 228.237854,67.665482 226.078018,62.891930 
	C221.963242,66.059654 224.341736,74.392372 215.615234,74.131737 
	C218.989807,65.937897 222.111069,58.359154 225.647507,49.772270 
	C230.680817,60.870518 235.352158,71.170647 240.161484,81.775055 
	C227.135941,81.775055 214.720963,81.775055 201.883667,81.775055 
	C203.395187,77.835403 204.587631,74.162170 206.181931,70.672546 
	C212.176956,57.550541 218.291931,44.483212 224.412521,31.419085 
	C224.717529,30.768045 225.497437,30.339479 226.280518,30.081287 
z"/>
<path fill="#BA9849" opacity="1.000000" stroke="none" 
	d="
M310.353149,125.503723 
	C311.853729,124.053032 313.332214,122.011406 314.608978,122.130615 
	C316.047089,122.264877 317.474854,124.212013 318.579803,125.626320 
	C319.344727,126.605354 319.555298,128.017487 319.665985,129.604950 
	C317.391052,129.973801 315.463684,129.973801 313.536316,129.973801 
	C315.031006,131.053177 316.558441,130.997467 317.863159,131.509399 
	C319.300446,132.073380 320.533112,133.158859 321.854889,134.017151 
	C322.561005,136.412140 323.267120,138.807129 323.924133,141.576385 
	C322.387238,141.312057 320.593628,141.003098 319.475525,139.965942 
	C317.182556,137.839035 311.594330,137.672180 309.366760,139.752197 
	C308.121307,140.915176 306.394958,141.563202 304.885254,142.443253 
	C304.596069,142.063034 304.306854,141.682800 304.017639,141.302582 
	C306.092438,136.157242 308.167236,131.011917 310.353149,125.503723 
M315.838562,132.923279 
	C316.056610,132.958160 316.274628,132.993027 316.492676,133.027893 
	C316.491699,132.903976 316.506714,132.675156 316.487305,132.672211 
	C316.269287,132.639008 316.045959,132.640518 315.838562,132.923279 
M315.933960,127.592880 
	C315.933960,127.592880 316.127777,127.460014 316.127777,127.460014 
	C316.127777,127.460014 315.880646,127.473541 315.933960,127.592880 
z"/>
<path fill="#AD8D43" opacity="1.000000" stroke="none" 
	d="
M282.869904,128.979996 
	C281.539459,133.143921 280.503174,137.289352 284.096832,141.040283 
	C279.460114,142.373825 279.479614,142.363190 277.694366,139.092514 
	C277.067993,137.944931 276.319977,136.863724 275.425049,135.213531 
	C275.709808,128.386948 275.709808,128.386948 282.869904,128.979996 
z"/>
<path fill="#C09C49" opacity="1.000000" stroke="none" 
	d="
M282.920288,128.589722 
	C275.709808,128.386948 275.709808,128.386948 275.184387,134.997620 
	C275.162659,137.273224 275.179230,139.226105 275.105835,141.592346 
	C275.015900,142.005707 274.531677,141.979507 274.273102,141.463165 
	C274.015076,134.641434 274.015594,128.336029 274.016144,122.030624 
	C279.932251,121.634842 282.334198,123.289551 282.920288,128.589722 
z"/>
<path fill="#8D743B" opacity="1.000000" stroke="none" 
	d="
M273.589569,122.063950 
	C274.015594,128.336029 274.015076,134.641434 274.037537,141.405823 
	C269.625153,142.473068 270.958160,139.047379 270.507141,136.416809 
	C270.864288,133.126816 271.172638,130.244934 271.691467,127.401443 
	C272.019501,125.603745 272.661713,123.863373 273.589569,122.063950 
z"/>
<path fill="#F5C659" opacity="1.000000" stroke="none" 
	d="
M381.074341,89.001472 
	C381.004730,94.480286 380.783722,99.962898 380.921387,105.436501 
	C381.006256,108.810478 379.982513,110.276016 376.380371,110.085846 
	C371.574890,109.832138 366.745239,110.035904 361.461914,110.111824 
	C360.053223,110.002670 359.108643,109.824867 358.060364,108.860489 
	C357.910553,93.717209 357.864410,79.360504 357.887268,64.539383 
	C357.910004,50.050106 357.863770,36.025242 357.817505,22.000374 
	C357.916168,20.508476 358.014832,19.016582 358.131531,17.251650 
	C362.554962,17.251650 366.956940,17.251650 371.613220,17.251650 
	C371.613220,44.749130 371.613220,71.999290 371.613220,99.713165 
	C370.302948,99.884865 368.935577,100.064041 367.048035,100.311386 
	C367.048035,73.998680 367.048035,48.085938 367.048035,22.217899 
	C362.933899,21.869297 362.881744,21.869219 362.875671,25.926731 
	C362.850067,43.079597 362.857422,60.232517 362.854187,77.385414 
	C362.852539,86.180534 362.853912,94.975662 362.853912,104.120407 
	C367.315491,104.120407 371.372467,104.120407 375.930267,104.120407 
	C375.930267,75.164436 375.930267,46.266754 375.930267,17.180326 
	C377.697906,17.180326 378.969757,17.180326 380.901703,17.180326 
	C380.901703,31.538000 380.901703,45.807606 380.903015,61.000858 
	C380.960999,70.950165 381.017670,79.975815 381.074341,89.001472 
z"/>
<path fill="#202020" opacity="1.000000" stroke="none" 
	d="
M357.818298,65.003799 
	C357.864410,79.360504 357.910553,93.717209 357.888062,108.538330 
	C350.981964,103.935501 344.037659,99.004616 337.340088,93.758720 
	C331.775726,89.400414 326.501617,84.671577 320.770264,79.931046 
	C325.487396,69.344116 330.533203,58.933010 336.148438,48.338593 
	C338.250305,49.375141 339.784576,50.592731 341.314911,51.815289 
	C346.816742,56.210560 352.317261,60.607494 357.818298,65.003799 
z"/>
<path fill="#AD8D43" opacity="1.000000" stroke="none" 
	d="
M380.947937,125.352104 
	C381.743164,123.868080 382.558533,121.969452 383.696747,121.750717 
	C386.226166,121.264664 388.926727,121.501472 391.536346,121.709465 
	C392.255524,121.766792 393.288177,122.657204 393.474945,123.353653 
	C393.682373,124.126999 393.240692,125.808342 392.816925,125.902458 
	C388.974640,126.755707 389.979797,129.670792 390.004211,132.578674 
	C390.006805,134.991074 390.178955,137.031326 389.773834,138.949677 
	C389.537323,140.069733 388.378052,140.994919 387.633911,142.007751 
	C386.801971,141.045090 385.409607,140.165878 385.251343,139.102875 
	C384.888245,136.664688 384.892426,134.109512 385.178864,131.652100 
	C385.566437,128.326523 384.417847,126.355591 380.947937,125.352104 
z"/>
<path fill="#C09C49" opacity="1.000000" stroke="none" 
	d="
M349.840881,131.918945 
	C349.820251,134.069931 349.662384,136.230453 349.811066,138.369675 
	C350.035004,141.590759 348.664032,142.609192 345.322998,141.651779 
	C345.322998,135.260773 345.322998,128.740829 345.322998,120.974876 
	C347.621307,122.288857 349.285797,123.240494 350.854370,124.825775 
	C350.452576,127.612602 350.146729,129.765778 349.840881,131.918945 
z"/>
<path fill="#AD8D43" opacity="1.000000" stroke="none" 
	d="
M350.169464,132.055023 
	C350.146729,129.765778 350.452576,127.612602 350.988159,125.186920 
	C352.929596,127.440819 354.641296,129.967224 356.729858,132.982620 
	C358.684845,135.662186 360.263031,137.852753 361.841187,140.043320 
	C359.836151,143.874512 357.534332,142.475769 355.668884,140.116150 
	C353.720795,137.651947 352.203613,134.847046 350.169464,132.055023 
z"/>
<path fill="#8D743B" opacity="1.000000" stroke="none" 
	d="
M361.897034,139.575195 
	C360.263031,137.852753 358.684845,135.662186 357.024170,133.119324 
	C356.964905,130.123550 356.762665,127.448967 357.120880,124.851669 
	C357.267059,123.791672 358.627686,122.899170 359.435852,121.930450 
	C360.285431,122.864632 361.818817,123.763786 361.868805,124.738930 
	C362.113525,129.517227 361.963409,134.315720 361.897034,139.575195 
z"/>
<path fill="#2E2B25" opacity="1.000000" stroke="none" 
	d="
M334.482178,31.097208 
	C335.174469,28.778973 335.941711,26.381973 337.272980,24.355511 
	C338.132477,23.047169 339.818481,22.281816 341.134064,21.273117 
	C341.584778,21.661652 342.035461,22.050186 342.486176,22.438719 
	C340.890747,25.899401 339.295288,29.360083 337.421143,33.045307 
	C336.360413,32.571751 335.578339,31.873657 334.482178,31.097208 
z"/>
<path fill="#AD8D43" opacity="1.000000" stroke="none" 
	d="
M321.875061,133.690857 
	C320.533112,133.158859 319.300446,132.073380 317.863159,131.509399 
	C316.558441,130.997467 315.031006,131.053177 313.536316,129.973801 
	C315.463684,129.973801 317.391052,129.973801 319.709595,129.977051 
	C320.698883,131.108398 321.297058,132.236496 321.875061,133.690857 
z"/>
<path fill="#F6C75A" opacity="1.000000" stroke="none" 
	d="
M469.109009,51.540138 
	C469.132904,67.694168 469.087219,83.383820 469.110474,99.537804 
	C469.179382,102.814301 469.179382,105.626457 469.179382,108.680389 
	C464.119843,109.708885 460.357697,109.274963 456.503113,105.348724 
	C440.069824,88.609894 423.235504,72.264778 406.346252,55.577026 
	C406.206848,56.389198 405.890839,57.380924 405.888275,58.373459 
	C405.852386,72.352211 405.866302,86.331070 405.848724,100.309883 
	C405.845673,102.743874 405.558655,105.360611 409.899841,103.947136 
	C409.899841,91.573845 409.899841,79.023865 409.899841,65.949005 
	C413.932404,68.271103 415.213470,71.018433 415.112122,75.102562 
	C414.839691,86.079224 415.014984,97.067001 415.003906,108.518036 
	C410.573303,108.985703 406.151337,108.985703 400.954773,108.985703 
	C400.954773,105.663544 400.954773,102.293083 400.957520,97.998993 
	C400.914001,85.383720 400.867676,73.692070 400.821381,62.000420 
	C400.821381,56.008488 400.821381,50.016556 400.821381,42.818348 
	C422.234924,63.678352 442.881348,83.791069 464.096893,104.458183 
	C464.096893,91.710442 464.096893,79.318108 464.012573,66.463852 
	C463.928223,51.423706 463.928223,36.845463 463.928223,21.911160 
	C459.668854,21.911160 455.613037,21.911160 450.992432,21.911160 
	C450.992432,34.413719 450.992432,46.923500 450.992432,60.230206 
	C447.344055,58.067070 445.883636,55.882492 445.929474,52.333210 
	C446.077484,40.874638 445.984222,29.412945 445.994995,17.485054 
	C453.437317,17.017651 460.868591,17.017651 469.039429,17.017651 
	C469.039429,28.381939 469.039429,39.728844 469.109009,51.540138 
z"/>
<path fill="#F4C659" opacity="1.000000" stroke="none" 
	d="
M397.076904,98.001572 
	C397.007202,100.652672 396.817993,103.307411 396.898346,105.953957 
	C396.997162,109.209076 395.773560,110.662491 391.950378,109.656601 
	C391.950378,104.832268 391.950378,99.880974 391.953064,94.002258 
	C391.910339,84.383400 391.864899,75.691971 391.819458,67.000549 
	C391.819427,51.935719 391.819427,36.870892 391.819427,21.806061 
	C392.284851,21.559803 392.750244,21.313547 393.215668,21.067289 
	C398.802979,26.889994 404.329254,32.772778 409.989319,38.523872 
	C425.509552,54.293690 441.014221,70.080414 456.707123,85.677261 
	C459.497009,88.450081 460.696289,91.187256 459.984863,94.075752 
	C439.350098,74.172737 418.387604,53.953629 396.906433,33.234211 
	C396.906433,42.354660 396.906433,51.216076 396.907715,61.001198 
	C396.964966,73.950462 397.020935,85.976013 397.076904,98.001572 
z"/>
<path fill="#F5C659" opacity="1.000000" stroke="none" 
	d="
M395.314392,17.350143 
	C399.332062,16.006929 402.264557,17.588108 405.220215,20.653421 
	C420.235107,36.225288 435.488617,51.566895 450.617767,67.029060 
	C451.764740,68.201271 452.593994,69.684341 453.570923,71.022896 
	C453.998535,70.780037 454.426178,70.537186 454.853790,70.294327 
	C454.853790,55.797386 454.853790,41.300449 454.853790,26.437218 
	C456.713409,26.233868 458.083710,26.084028 460.043365,25.869740 
	C460.043365,39.193916 460.043365,52.134441 460.111938,65.539490 
	C460.180511,71.406387 460.180511,76.808769 460.180511,83.573578 
	C437.924194,60.901310 416.690460,39.270748 395.314392,17.350143 
z"/>
<path fill="#232322" opacity="1.000000" stroke="none" 
	d="
M357.887268,64.539383 
	C352.317261,60.607494 346.816742,56.210560 341.314911,51.815289 
	C339.784576,50.592731 338.250305,49.375141 336.387146,48.078541 
	C340.711792,38.204857 345.367157,28.407911 350.234955,18.304836 
	C352.693756,19.274059 354.940063,20.549410 357.501953,21.912567 
	C357.863770,36.025242 357.910004,50.050106 357.887268,64.539383 
z"/>
<path fill="#232322" opacity="1.000000" stroke="none" 
	d="
M391.490509,66.914360 
	C391.864899,75.691971 391.910339,84.383400 391.887177,93.539299 
	C388.476013,92.353073 385.133484,90.702370 381.432617,89.026566 
	C381.017670,79.975815 380.960999,70.950165 380.989349,61.462616 
	C384.436768,62.943207 387.799164,64.885689 391.490509,66.914360 
z"/>
<path fill="#232322" opacity="1.000000" stroke="none" 
	d="
M397.451294,98.001282 
	C397.020935,85.976013 396.964966,73.950462 396.993835,61.463013 
	C398.115356,61.289761 399.152100,61.578396 400.505096,61.933727 
	C400.867676,73.692070 400.914001,85.383720 400.890717,97.539764 
	C399.822662,98.003098 398.824158,98.002037 397.451294,98.001282 
z"/>
<path fill="#AD8D43" opacity="1.000000" stroke="none" 
	d="
M420.381165,121.436852 
	C421.887482,122.394073 423.041687,123.206306 425.488556,124.928177 
	C421.917969,125.791580 419.747955,126.316307 416.487549,127.104706 
	C417.989075,128.148560 419.367554,128.768982 420.267365,129.805099 
	C421.964813,131.759735 424.347229,133.840622 424.611420,136.084885 
	C424.813446,137.800949 422.502960,140.985718 420.747955,141.466888 
	C418.475342,142.089951 415.643951,140.674850 413.053131,140.137238 
	C413.091522,139.380280 413.129913,138.623337 413.168335,137.866379 
	C415.343781,137.358124 417.519257,136.849884 420.678528,136.111771 
	C416.738037,132.765915 409.066101,131.386368 413.400543,124.379257 
	C414.472443,122.646431 417.760010,122.284157 420.381165,121.436852 
z"/>
<path fill="#F0C258" opacity="1.000000" stroke="none" 
	d="
M82.304405,46.027966 
	C81.516998,61.881149 75.162605,67.998230 59.185188,68.196350 
	C53.554440,68.266174 47.922092,68.207512 41.828438,68.207512 
	C41.828438,79.222191 41.828438,89.809120 41.828438,100.832130 
	C40.027576,100.939278 38.668015,101.020172 37.147720,101.110619 
	C37.147720,88.602142 37.147720,76.501083 37.147720,63.439011 
	C45.398014,63.439011 53.492947,63.658794 61.571724,63.391079 
	C76.236473,62.905113 79.109093,52.319046 76.470490,41.085423 
	C74.992577,34.793346 70.393974,31.297384 63.805004,31.035559 
	C58.172737,30.811750 52.524529,30.989262 46.492939,30.989262 
	C46.368633,29.198742 46.274101,27.837132 46.109451,25.465506 
	C54.333603,26.032290 62.073032,26.565666 70.438034,27.420540 
	C79.127319,31.183710 81.569649,38.080997 82.304405,46.027966 
z"/>
<path fill="#232018" opacity="1.000000" stroke="none" 
	d="
M82.619598,46.049061 
	C81.569649,38.080997 79.127319,31.183710 70.833054,27.478966 
	C71.084213,26.279175 71.565926,25.342453 72.107239,24.004589 
	C83.227226,27.145189 86.139709,35.952724 86.678253,46.631298 
	C85.358368,46.715366 84.146584,46.392761 82.619598,46.049061 
z"/>
<path fill="#AD8D43" opacity="1.000000" stroke="none" 
	d="
M242.952881,137.353516 
	C244.194443,135.722229 246.076569,134.248489 246.525711,132.422302 
	C247.181137,129.757141 246.615036,126.813606 246.978302,124.042297 
	C247.101242,123.104431 248.464798,122.329185 249.261398,121.479614 
	C249.861038,122.267632 250.944733,123.035629 250.978287,123.847054 
	C251.142166,127.808899 251.366318,131.821808 250.912140,135.740494 
	C250.463501,139.611191 247.841187,141.916962 243.817062,142.008743 
	C239.549042,142.106033 236.426132,140.552979 236.514679,135.395264 
	C238.030197,134.953949 239.138260,134.818970 240.246307,134.683990 
	C240.525604,135.210556 240.804901,135.737122 240.982483,136.760635 
	C241.040680,137.713104 241.200592,138.168640 241.360504,138.624146 
	C241.891296,138.200607 242.422089,137.777054 242.952881,137.353516 
z"/>
<path fill="#C09C49" opacity="1.000000" stroke="none" 
	d="
M240.263763,134.240906 
	C239.138260,134.818970 238.030197,134.953949 236.620148,135.027756 
	C236.288574,131.513657 236.087738,128.048584 236.331253,124.615028 
	C236.406662,123.551666 237.689850,122.573952 238.420074,121.557007 
	C239.033142,122.512428 240.099243,123.433342 240.175140,124.429688 
	C240.411835,127.537071 240.273926,130.672989 240.263763,134.240906 
z"/>
<path fill="#C09C49" opacity="1.000000" stroke="none" 
	d="
M242.666580,137.246216 
	C242.422089,137.777054 241.891296,138.200607 241.360504,138.624146 
	C241.200592,138.168640 241.040680,137.713104 241.035309,137.061264 
	C241.586655,136.956268 241.983475,137.047592 242.666580,137.246216 
z"/>
<path fill="#AD8D43" opacity="1.000000" stroke="none" 
	d="
M315.831299,132.777985 
	C316.045959,132.640518 316.269287,132.639008 316.487305,132.672211 
	C316.506714,132.675156 316.491699,132.903976 316.492676,133.027893 
	C316.274628,132.993027 316.056610,132.958160 315.831299,132.777985 
z"/>
<path fill="#AD8D43" opacity="1.000000" stroke="none" 
	d="
M315.907288,127.533211 
	C315.880646,127.473541 316.127777,127.460014 316.127777,127.460014 
	C316.127777,127.460014 315.933960,127.592880 315.907288,127.533211 
z"/>
</svg>